<svg width="294" height="244" viewBox="0 0 294 244" fill="none" xmlns="http://www.w3.org/2000/svg">
<g clip-path="url(#clip0)">
<path opacity="0.1" d="M95.306 8.67765C103.903 1.07084 117.397 -0.488552 129.681 0.117067C168.262 2.02462 203.088 20.5384 233.213 41.4835C244.12 49.0639 254.857 57.2354 261.935 67.6772C276.356 88.9324 272.071 118.377 252.034 135.887C245.215 141.844 236.951 146.419 228.466 150.46C213.38 157.657 197.102 163.435 179.979 165.088C167.771 166.258 155.41 165.308 143.27 163.672C109.356 159.091 76.0729 148.979 48.1636 131.683C35.9262 124.096 24.3923 114.664 19.3478 102.396C14.3033 90.129 17.5319 74.5643 30.0283 67.2881C35.1963 64.2834 41.3768 62.9259 47.4249 61.6503C56.3307 59.7749 65.3777 57.9259 73.4124 54.1137C81.7148 50.1757 91.5418 42.5601 89.8937 33.8415C88.1396 24.4998 86.721 16.2845 95.306 8.67765Z" fill="#044395"/>
<path d="M201.587 195.697C201.587 195.697 208.962 182.71 220.067 178.968C224.735 177.428 228.775 174.424 231.58 170.407C232.897 168.49 234.034 166.457 234.976 164.333" stroke="#535461" stroke-width="2" stroke-miterlimit="10"/>
<path d="M241.963 161.931C240.698 163.154 234.803 164.415 234.803 164.415C234.803 164.415 236.248 158.596 237.513 157.376C238.121 156.789 238.938 156.467 239.785 156.479C240.632 156.491 241.439 156.838 242.029 157.442C242.62 158.046 242.944 158.858 242.932 159.7C242.919 160.542 242.571 161.345 241.963 161.931Z" fill="#044395"/>
<path d="M238.629 172.461C236.898 172.803 231.271 170.679 231.271 170.679C231.271 170.679 235.668 166.583 237.396 166.232C238.226 166.068 239.089 166.239 239.793 166.707C240.497 167.175 240.986 167.902 241.151 168.728C241.316 169.554 241.144 170.411 240.673 171.111C240.203 171.811 239.471 172.297 238.64 172.461H238.629Z" fill="#044395"/>
<path d="M226.489 183.854C224.82 183.268 221.032 178.617 221.032 178.617C221.032 178.617 226.918 177.282 228.578 177.856C228.983 177.985 229.358 178.194 229.68 178.469C230.003 178.745 230.267 179.081 230.457 179.46C230.647 179.838 230.759 180.25 230.787 180.672C230.814 181.094 230.757 181.517 230.618 181.916C230.478 182.316 230.26 182.684 229.976 182.998C229.692 183.313 229.348 183.568 228.963 183.748C228.578 183.929 228.161 184.031 227.736 184.049C227.312 184.067 226.887 184.001 226.489 183.854Z" fill="#044395"/>
<path d="M215.349 190.419C213.609 190.126 209.083 186.174 209.083 186.174C209.083 186.174 214.648 183.868 216.388 184.155C216.805 184.219 217.205 184.365 217.564 184.584C217.924 184.803 218.237 185.09 218.484 185.43C218.732 185.77 218.909 186.155 219.006 186.563C219.103 186.971 219.117 187.394 219.048 187.808C218.98 188.222 218.829 188.618 218.606 188.974C218.382 189.329 218.09 189.637 217.746 189.88C217.402 190.123 217.013 190.296 216.602 190.388C216.19 190.48 215.764 190.491 215.349 190.419Z" fill="#044395"/>
<path d="M226.344 166.133C226.344 167.888 229.535 172.97 229.535 172.97C229.535 172.97 232.731 167.888 232.731 166.136C232.731 165.294 232.394 164.486 231.795 163.891C231.197 163.296 230.384 162.961 229.537 162.961C228.691 162.961 227.878 163.296 227.28 163.891C226.681 164.486 226.344 165.294 226.344 166.136V166.133Z" fill="#044395"/>
<path d="M213.415 173.973C213.945 175.647 218.519 179.55 218.519 179.55C218.519 179.55 220.037 173.748 219.51 172.075C219.257 171.271 218.693 170.601 217.942 170.211C217.192 169.82 216.316 169.743 215.508 169.995C214.699 170.246 214.025 170.807 213.632 171.553C213.24 172.299 213.162 173.17 213.415 173.973Z" fill="#044395"/>
<path d="M201.902 183.307C202.137 185.044 205.984 189.661 205.984 189.661C205.984 189.661 208.468 184.199 208.233 182.461C208.12 181.626 207.678 180.871 207.005 180.36C206.331 179.849 205.481 179.625 204.642 179.737C203.803 179.849 203.042 180.288 202.528 180.958C202.015 181.627 201.789 182.472 201.902 183.307Z" fill="#044395"/>
<path opacity="0.25" d="M241.963 161.931C240.698 163.154 234.803 164.415 234.803 164.415C234.803 164.415 236.248 158.596 237.513 157.376C238.121 156.789 238.938 156.467 239.785 156.479C240.632 156.491 241.439 156.838 242.029 157.442C242.62 158.046 242.944 158.858 242.932 159.7C242.919 160.542 242.571 161.345 241.963 161.931Z" fill="black"/>
<path opacity="0.25" d="M238.629 172.461C236.898 172.803 231.271 170.679 231.271 170.679C231.271 170.679 235.668 166.583 237.396 166.232C238.226 166.068 239.089 166.239 239.793 166.707C240.497 167.175 240.986 167.902 241.151 168.728C241.316 169.554 241.144 170.411 240.673 171.111C240.203 171.811 239.471 172.297 238.64 172.461H238.629Z" fill="black"/>
<path opacity="0.25" d="M226.489 183.854C224.82 183.268 221.032 178.617 221.032 178.617C221.032 178.617 226.918 177.282 228.578 177.856C228.983 177.985 229.358 178.194 229.68 178.469C230.003 178.745 230.267 179.081 230.457 179.46C230.647 179.838 230.759 180.25 230.787 180.672C230.814 181.094 230.757 181.517 230.618 181.916C230.478 182.316 230.26 182.684 229.976 182.998C229.692 183.313 229.348 183.568 228.963 183.748C228.578 183.929 228.161 184.031 227.736 184.049C227.312 184.067 226.887 184.001 226.489 183.854Z" fill="black"/>
<path opacity="0.25" d="M215.349 190.419C213.609 190.126 209.083 186.174 209.083 186.174C209.083 186.174 214.648 183.868 216.388 184.155C216.805 184.219 217.205 184.365 217.564 184.584C217.924 184.803 218.237 185.09 218.484 185.43C218.732 185.77 218.909 186.155 219.006 186.563C219.103 186.971 219.117 187.394 219.048 187.808C218.98 188.222 218.829 188.618 218.606 188.974C218.382 189.329 218.09 189.637 217.746 189.88C217.402 190.123 217.013 190.296 216.602 190.388C216.19 190.48 215.764 190.491 215.349 190.419Z" fill="black"/>
<path opacity="0.25" d="M226.344 166.133C226.344 167.888 229.535 172.97 229.535 172.97C229.535 172.97 232.731 167.888 232.731 166.136C232.731 165.294 232.394 164.486 231.795 163.891C231.197 163.296 230.384 162.961 229.537 162.961C228.691 162.961 227.878 163.296 227.28 163.891C226.681 164.486 226.344 165.294 226.344 166.136V166.133Z" fill="black"/>
<path opacity="0.25" d="M213.415 173.973C213.945 175.647 218.519 179.55 218.519 179.55C218.519 179.55 220.037 173.748 219.51 172.075C219.257 171.271 218.693 170.601 217.942 170.211C217.192 169.82 216.316 169.743 215.508 169.995C214.699 170.246 214.025 170.807 213.632 171.553C213.24 172.299 213.162 173.17 213.415 173.973Z" fill="black"/>
<path opacity="0.25" d="M201.902 183.307C202.137 185.044 205.984 189.661 205.984 189.661C205.984 189.661 208.468 184.199 208.233 182.461C208.12 181.626 207.678 180.871 207.005 180.36C206.331 179.849 205.481 179.625 204.642 179.737C203.803 179.849 203.042 180.288 202.528 180.958C202.015 181.627 201.789 182.472 201.902 183.307Z" fill="black"/>
<path d="M202.011 195.433C202.011 195.433 203.459 180.589 212.088 172.695C215.728 169.406 218.196 165.031 219.122 160.229C219.545 157.944 219.756 155.626 219.752 153.303" stroke="#535461" stroke-width="2" stroke-miterlimit="10"/>
<path d="M225.158 148.306C224.499 149.933 219.625 153.461 219.625 153.461C219.625 153.461 218.578 147.557 219.237 145.934C219.386 145.537 219.614 145.174 219.906 144.866C220.199 144.558 220.551 144.311 220.941 144.14C221.331 143.97 221.751 143.878 222.177 143.871C222.603 143.865 223.026 143.943 223.422 144.101C223.817 144.259 224.176 144.495 224.479 144.794C224.781 145.092 225.02 145.448 225.182 145.84C225.344 146.232 225.425 146.652 225.421 147.075C225.417 147.499 225.328 147.918 225.158 148.306Z" fill="#044395"/>
<path d="M226.403 159.275C224.961 160.284 218.939 160.612 218.939 160.612C218.939 160.612 221.294 155.091 222.727 154.082C223.07 153.842 223.457 153.671 223.867 153.58C224.276 153.489 224.699 153.479 225.112 153.55C225.526 153.622 225.921 153.773 226.275 153.997C226.629 154.22 226.936 154.51 227.177 154.851C227.418 155.192 227.59 155.577 227.682 155.984C227.773 156.391 227.784 156.812 227.712 157.222C227.64 157.633 227.487 158.026 227.263 158.378C227.038 158.73 226.746 159.035 226.403 159.275Z" fill="#044395"/>
<path d="M219.949 174.582C218.183 174.728 212.827 171.99 212.827 171.99C212.827 171.99 217.656 168.403 219.402 168.254C220.246 168.183 221.084 168.449 221.731 168.992C222.378 169.536 222.781 170.312 222.852 171.152C222.923 171.991 222.656 172.824 222.109 173.467C221.563 174.11 220.781 174.511 219.937 174.582H219.949Z" fill="#044395"/>
<path d="M212.441 185.071C210.734 185.51 204.983 183.713 204.983 183.713C204.983 183.713 209.13 179.363 210.837 178.924C211.246 178.81 211.674 178.778 212.095 178.83C212.517 178.882 212.923 179.017 213.292 179.227C213.66 179.438 213.982 179.719 214.24 180.055C214.497 180.39 214.685 180.774 214.792 181.182C214.898 181.591 214.922 182.017 214.861 182.435C214.8 182.852 214.656 183.254 214.437 183.616C214.218 183.978 213.929 184.292 213.586 184.542C213.244 184.791 212.854 184.97 212.441 185.068V185.071Z" fill="#044395"/>
<path d="M212.594 158.435C213.306 160.038 218.298 163.409 218.298 163.409C218.298 163.409 219.148 157.476 218.433 155.872C218.08 155.119 217.444 154.533 216.661 154.241C215.878 153.949 215.011 153.973 214.246 154.31C213.482 154.646 212.88 155.267 212.571 156.04C212.262 156.812 212.27 157.674 212.594 158.441V158.435Z" fill="#044395"/>
<path d="M203.971 170.814C205.133 172.13 210.908 173.856 210.908 173.856C210.908 173.856 209.934 167.941 208.768 166.624C208.494 166.303 208.158 166.039 207.78 165.848C207.402 165.657 206.99 165.543 206.567 165.512C206.144 165.482 205.719 165.535 205.317 165.669C204.915 165.803 204.544 166.015 204.226 166.293C203.907 166.572 203.648 166.91 203.462 167.289C203.277 167.668 203.169 168.08 203.145 168.5C203.121 168.921 203.182 169.342 203.324 169.74C203.466 170.137 203.686 170.502 203.971 170.814Z" fill="#044395"/>
<path d="M197.249 183.985C198.173 185.48 203.571 188.148 203.571 188.148C203.571 188.148 203.615 182.157 202.688 180.662C202.468 180.306 202.18 179.998 201.841 179.753C201.501 179.508 201.117 179.333 200.709 179.236C200.301 179.139 199.878 179.123 199.464 179.189C199.049 179.254 198.652 179.4 198.295 179.619C197.938 179.837 197.627 180.123 197.381 180.46C197.135 180.798 196.958 181.18 196.861 181.586C196.763 181.991 196.747 182.412 196.813 182.824C196.879 183.235 197.026 183.63 197.246 183.985H197.249Z" fill="#044395"/>
<path opacity="0.1" d="M110.122 243.997C129.445 243.997 145.109 241.386 145.109 238.166C145.109 234.946 129.445 232.335 110.122 232.335C90.7987 232.335 75.1343 234.946 75.1343 238.166C75.1343 241.386 90.7987 243.997 110.122 243.997Z" fill="#044395"/>
<path opacity="0.1" d="M178.987 199.237C198.31 199.237 213.974 196.626 213.974 193.406C213.974 190.186 198.31 187.575 178.987 187.575C159.664 187.575 144 190.186 144 193.406C144 196.626 159.664 199.237 178.987 199.237Z" fill="#044395"/>
<path d="M181.309 116.451L181.277 117.59L179.287 187.373H175.944L177.583 117.59L177.616 116.276L181.309 116.451Z" fill="#B77B7F"/>
<path d="M200.665 175.568L198.161 175.562L160.948 175.483L158.965 175.48L160.021 172.244H200.401L200.665 175.568Z" fill="#DDA2A6"/>
<path opacity="0.1" d="M181.309 116.451L181.277 117.59H177.583L177.615 116.276L181.309 116.451Z" fill="black"/>
<path d="M182.719 114.746H176.518V117.066H182.719V114.746Z" fill="#B77B7F"/>
<path opacity="0.1" d="M161.278 172.244L160.948 175.483L158.965 175.48L160.021 172.244H161.278Z" fill="black"/>
<path d="M166.62 114.702L166.517 115.708L158.262 196.645L154.48 196.466L163.18 115.708L163.277 114.79L166.62 114.702Z" fill="#DDA2A6"/>
<path opacity="0.1" d="M200.666 175.568L198.161 175.562L197.823 172.244H200.401L200.666 175.568Z" fill="black"/>
<path d="M204.624 196.466L200.839 196.645L192.587 115.708L192.484 114.702L195.824 114.79L195.921 115.708L204.624 196.466Z" fill="#DDA2A6"/>
<path d="M220.72 34.9036H137.325V114.395H220.72V34.9036Z" fill="white"/>
<path d="M180.65 8.31774V27.5132H177.398V8.31774C177.389 8.09968 177.424 7.88199 177.501 7.67779C177.579 7.47358 177.697 7.28708 177.849 7.1295C178.001 6.97192 178.183 6.84653 178.385 6.76087C178.587 6.6752 178.804 6.63104 179.024 6.63104C179.244 6.63104 179.461 6.6752 179.663 6.76087C179.865 6.84653 180.047 6.97192 180.199 7.1295C180.351 7.28708 180.469 7.47358 180.547 7.67779C180.624 7.88199 180.659 8.09968 180.65 8.31774Z" fill="#DDA2A6"/>
<path opacity="0.1" d="M180.65 25.7666H177.395V27.5132H180.65V25.7666Z" fill="black"/>
<path d="M181.927 27.0773V33.4144H176.138V27.0773C176.138 26.9738 176.158 26.8713 176.198 26.7757C176.237 26.68 176.296 26.5931 176.369 26.5199C176.443 26.4468 176.53 26.3888 176.626 26.3494C176.723 26.31 176.826 26.2899 176.93 26.2903H181.141C181.35 26.2918 181.55 26.3754 181.697 26.5229C181.845 26.6703 181.927 26.8696 181.927 27.0773Z" fill="#DDA2A6"/>
<path opacity="0.1" d="M179.022 31.5361C179.702 31.5361 180.252 30.9886 180.252 30.3131C180.252 29.6377 179.702 29.0902 179.022 29.0902C178.343 29.0902 177.792 29.6377 177.792 30.3131C177.792 30.9886 178.343 31.5361 179.022 31.5361Z" fill="black"/>
<path d="M179.022 31.2727C179.702 31.2727 180.252 30.7252 180.252 30.0498C180.252 29.3744 179.702 28.8268 179.022 28.8268C178.343 28.8268 177.792 29.3744 177.792 30.0498C177.792 30.7252 178.343 31.2727 179.022 31.2727Z" fill="#B77B7F"/>
<path opacity="0.1" d="M181.927 32.6302H176.121V33.4173H181.927V32.6302Z" fill="black"/>
<path opacity="0.1" d="M184.302 33.6806H173.745V35.4302H184.302V33.6806Z" fill="black"/>
<path d="M184.302 33.154H173.745V34.9036H184.302V33.154Z" fill="#DDA2A6"/>
<path opacity="0.1" d="M157.667 112.347H202.005C202.512 112.347 202.999 112.547 203.358 112.904C203.717 113.26 203.918 113.744 203.918 114.248V114.664H155.754V114.248C155.754 113.744 155.956 113.26 156.315 112.904C156.673 112.547 157.16 112.347 157.667 112.347Z" fill="black"/>
<path opacity="0.1" d="M163.277 114.79L166.62 114.702L166.517 115.708H163.18L163.277 114.79Z" fill="black"/>
<path opacity="0.1" d="M182.719 114.746H176.518V115.708H182.719V114.746Z" fill="black"/>
<path opacity="0.1" d="M195.921 115.708H192.587L192.484 114.702L195.824 114.79L195.921 115.708Z" fill="black"/>
<path d="M157.667 112.865H202.005C202.512 112.865 202.999 113.065 203.358 113.421C203.717 113.778 203.918 114.262 203.918 114.766V115.182H155.754V114.766C155.754 114.262 155.956 113.778 156.315 113.421C156.673 113.065 157.16 112.865 157.667 112.865Z" fill="#DDA2A6"/>
<path d="M147.946 75.9598C147.278 75.6087 140 70.1435 140 70.1435L128.254 62.7386C128.254 62.7386 128.192 62.5631 128.08 62.2617C131.303 58.6251 130.6 53.3471 127.321 49.6373C123.348 45.1376 105.395 35.4507 99.9855 43.7362C99.2291 44.9065 99.2027 46.2348 99.0055 47.5221C98.5434 50.5268 97.0542 53.4378 94.7174 55.8896C92.9162 57.7825 90.5529 59.5262 89.517 61.6678C89.517 61.6415 89.4963 61.6151 89.4875 61.5859C89.2374 62.0449 89.056 62.5377 88.9489 63.0487C88.4339 65.6614 90.1998 68.1658 91.1386 70.7082C91.4537 71.5692 91.6824 72.459 91.8214 73.3647C91.8449 73.1833 91.8655 73.0049 91.8861 72.8235C92.1149 74.1131 92.193 75.4247 92.1186 76.7322C85.5997 78.0517 85.5968 89.1371 85.5968 89.1371C85.5968 89.1371 84.7933 93.5432 84.9287 95.1319C85.0641 96.7206 85.0611 100.155 85.0611 100.983C85.0611 101.811 84.2577 106.975 84.1782 107.595C84.179 107.604 84.179 107.613 84.1782 107.622C84.0605 108.3 82.8391 111.571 85.791 112.303C85.997 112.355 86.2148 112.399 86.4414 112.44C86.568 115.088 86.7975 120.632 86.5945 121.867C86.5945 121.867 87.6687 129.316 88.5604 131.209C89.1244 132.319 89.7841 133.378 90.5323 134.374C90.4676 134.828 90.3136 135.264 90.0791 135.659C89.6229 136.311 89.8583 136.846 90.6206 137.078C90.5941 137.303 90.5647 137.557 90.5323 137.844C90.2056 140.717 89.7171 146.428 90.547 149.322C91.686 153.289 91.7537 154.611 91.7537 154.611C91.7537 154.611 91.7537 155.799 92.2246 156.46C92.6955 157.121 93.5637 163.271 93.5637 164.263C93.5637 165.255 95.8417 174.178 95.1706 176.294C94.4996 178.409 95.0382 181.384 95.0382 181.384C95.0382 181.384 94.635 186.607 94.1553 187.73C93.6755 188.854 93.4842 206.967 94.22 211.659C94.9558 216.352 95.4267 220.252 95.4267 220.252C95.4267 220.252 94.9587 224.55 95.359 225.144C95.7592 225.738 96.498 229.31 95.9623 229.506C95.4267 229.702 95.1589 231.159 95.1589 231.159C95.4421 231.587 95.7476 232 96.0742 232.397C95.8677 232.325 95.6661 232.24 95.4708 232.142C95.6827 232.435 96.0006 232.85 96.392 233.312L96.0241 238.067C96.0087 238.252 96.0591 238.437 96.1666 238.589C96.2742 238.742 96.432 238.852 96.6127 238.901C97.7879 239.218 99.0278 239.213 100.2 238.885C101.373 238.557 102.433 237.92 103.27 237.04C106.619 233.669 107.758 234.132 108.362 232.084C108.426 231.864 108.482 231.648 108.529 231.443C108.962 229.617 107.005 228.26 105.448 229.038C105.663 227.593 105.83 225.951 105.669 225.024C105.333 223.108 105.401 218.084 105.401 218.084L104.933 194.02C104.933 194.02 105.801 189.26 106.808 187.411C107.814 185.562 107.691 179.082 107.691 179.082L108.83 157.794L109.901 147.417C109.901 147.417 110.972 143.848 112.311 147.815C112.311 147.815 111.575 155.811 111.911 157.73C112.246 159.649 112.714 168.968 112.379 171.016C112.043 173.064 110.572 184.304 111.496 187.145C112.42 189.986 113.45 193.429 113.244 194.556C113.038 195.682 112.361 220.071 112.361 220.071C112.361 220.071 114.171 224.752 112.832 226.285C111.493 227.818 112.764 233.892 112.764 233.892C112.764 233.892 112.926 234.006 113.203 234.164L113.165 234.67L112.744 240.138C112.729 240.324 112.779 240.509 112.887 240.662C112.994 240.814 113.152 240.925 113.332 240.975C114.508 241.293 115.748 241.288 116.92 240.96C118.092 240.632 119.153 239.994 119.99 239.114C123.339 235.741 124.478 236.206 125.081 234.155C125.146 233.936 125.202 233.722 125.252 233.514C125.723 231.522 123.339 230.077 121.744 231.379L121.664 231.446C121.581 231.516 121.494 231.582 121.402 231.642C121.36 231.673 121.316 231.701 121.27 231.727C121.605 230.217 122.094 227.631 121.859 226.419C121.523 224.635 122.191 219.216 122.191 219.216C122.191 219.216 124.134 212.736 124.201 210.147L124.737 189.524C124.737 189.524 124.672 181.127 124.94 179.079C125.208 177.031 127.35 159.313 129.493 154.023C131.138 149.974 131.874 139.64 131.438 134.401C131.415 134.143 131.391 133.894 131.362 133.663C133.99 131.735 134.252 128.529 134.252 128.529C134.252 128.529 131.839 123.947 129.516 122.007C127.194 120.068 126.694 116.732 126.776 115.313C126.816 114.449 126.529 113.6 125.973 112.935C125.973 112.935 124.902 109.497 124.187 109.146C124.128 109.116 124.075 109.077 124.031 109.029C123.545 108.511 123.919 107.031 123.919 107.031V106.984C124.004 106.642 124.507 104.424 124.357 103.856C124.178 103.242 124.446 100.331 124.446 100.331C124.446 100.331 126.144 95.3074 125.876 91.3402C125.608 87.373 129.36 87.727 129.36 87.727L140.947 87.607H142.266C142.731 87.2146 143.156 86.7775 143.534 86.3021C145.742 86.0418 150.206 85.2138 150.707 82.7913C151.387 79.576 148.617 76.3138 147.946 75.9598ZM94.2642 112.636L94.3436 110.621C94.6173 110.855 94.7998 111.004 94.7998 111.004C94.9476 111.531 94.9547 112.088 94.8204 112.619C94.7485 112.868 94.6209 113.098 94.4472 113.292C94.2734 113.485 94.0579 113.637 93.8168 113.736C93.7608 113.761 93.7067 113.789 93.6549 113.821L93.5431 112.683L94.2642 112.636ZM136.291 77.2354C135.8 77.016 134.146 77.0599 133.295 77.0599C132.445 77.0599 131.065 76.3548 131.065 76.3548C130.77 75.7843 129.143 75.4449 127.695 75.2518C126.594 72.5543 125.046 69.9241 124.837 67.1125C124.837 67.0101 124.837 66.9077 124.822 66.8053L124.99 67.0979C124.99 67.0979 131.736 71.3753 132.495 72.6567C133.084 73.6339 135.918 75.8165 137.23 76.7936C137.05 77.028 136.796 77.1967 136.509 77.2735C136.434 77.2815 136.359 77.2683 136.291 77.2354Z" fill="url(#paint0_linear)"/>
<path d="M125.152 233.532C125.102 233.737 125.049 233.95 124.984 234.167C124.396 236.215 123.269 235.741 119.981 239.085C119.162 239.958 118.118 240.591 116.963 240.917C115.808 241.243 114.585 241.249 113.427 240.934C113.246 240.886 113.088 240.777 112.98 240.625C112.873 240.473 112.822 240.288 112.838 240.103L113.253 234.679L113.45 232.069C113.45 232.069 118.701 233.532 121.373 231.674C121.463 231.613 121.549 231.548 121.632 231.478C121.653 231.46 121.673 231.44 121.691 231.419C122.036 231.136 122.462 230.966 122.908 230.935C123.355 230.904 123.8 231.012 124.182 231.245C124.563 231.478 124.862 231.823 125.036 232.234C125.21 232.644 125.251 233.098 125.152 233.532Z" fill="#67647E"/>
<path d="M108.671 231.484C108.621 231.689 108.568 231.902 108.503 232.119C107.914 234.167 106.787 233.693 103.5 237.037C102.681 237.91 101.637 238.543 100.482 238.869C99.3266 239.195 98.1038 239.201 96.9455 238.886C96.7647 238.838 96.6066 238.729 96.4989 238.577C96.3913 238.425 96.341 238.24 96.3569 238.055L96.7719 232.631L96.969 230.021C96.969 230.021 102.22 231.484 104.892 229.626C104.981 229.565 105.068 229.5 105.151 229.43C105.171 229.412 105.191 229.392 105.21 229.372C105.555 229.088 105.98 228.918 106.427 228.887C106.874 228.856 107.319 228.964 107.7 229.197C108.082 229.43 108.381 229.775 108.555 230.186C108.729 230.596 108.769 231.05 108.671 231.484Z" fill="#67647E"/>
<path opacity="0.1" d="M103.247 232.297L103.459 235.118C100.445 238.111 96.8573 233.655 95.8066 232.192C98.5702 233.608 103.247 232.297 103.247 232.297Z" fill="black"/>
<path opacity="0.1" d="M120.961 233.444L121.355 233.184C118.604 237.344 114.516 235.425 113.241 234.679L113.438 232.069C113.438 232.069 118.689 233.532 121.361 231.674C121.152 232.692 120.961 233.444 120.961 233.444Z" fill="black"/>
<path d="M129.343 154.676C127.23 159.921 125.12 177.496 124.855 179.544C124.59 181.592 124.658 189.907 124.658 189.907L124.128 210.355C124.06 212.915 122.147 219.342 122.147 219.342C122.147 219.342 121.488 224.72 121.818 226.49C122.147 228.26 120.961 232.926 120.961 232.926L121.356 232.663C118.056 237.637 112.844 233.909 112.844 233.909C112.844 233.909 111.59 227.877 112.912 226.367C114.233 224.857 112.45 220.202 112.45 220.202C112.45 220.202 113.109 196.001 113.306 194.886C113.503 193.772 112.515 190.36 111.59 187.54C110.666 184.72 112.12 173.57 112.45 171.536C112.779 169.503 112.317 160.255 111.988 158.353C111.658 156.452 112.382 148.514 112.382 148.514C111.064 144.579 110.007 148.122 110.007 148.122L108.951 158.418L107.829 179.538C107.829 179.538 107.962 185.975 106.973 187.803C105.984 189.632 105.125 194.36 105.125 194.36L105.587 218.236C105.587 218.236 105.522 223.21 105.851 225.12C106.181 227.031 105.125 231.943 105.125 231.943C101.431 240.594 95.4977 231.215 95.4977 231.215C95.4977 231.215 95.7625 229.772 96.2894 229.576C96.8162 229.38 96.0922 225.837 95.7007 225.246C95.3093 224.655 95.7655 220.393 95.7655 220.393C95.7655 220.393 95.3034 216.525 94.5882 211.867C93.8731 207.209 94.0614 189.24 94.5235 188.125C94.9856 187.01 95.3799 181.829 95.3799 181.829C95.3799 181.829 94.8531 178.877 95.5124 176.776C96.1716 174.676 93.929 165.825 93.929 164.839C93.929 163.854 93.0726 157.756 92.6105 157.101C92.1484 156.446 92.1484 155.264 92.1484 155.264C92.1484 155.264 92.0837 153.953 90.9712 150.018C90.153 147.145 90.6357 141.481 90.9565 138.628C91.0713 137.572 91.1713 136.899 91.1713 136.899C91.1713 136.899 129.011 130.799 130.52 132.177C130.874 132.502 131.109 133.616 131.247 135.205C131.698 140.401 130.956 150.67 129.343 154.676Z" fill="#444053"/>
<path opacity="0.1" d="M115.022 184.167C115.199 184.167 119.378 184.518 120.908 184.21C122.439 183.903 115.022 184.167 115.022 184.167Z" fill="black"/>
<path opacity="0.1" d="M115.331 186.615C115.331 186.615 121.102 187.622 121.396 187.098C121.691 186.574 115.331 186.615 115.331 186.615Z" fill="black"/>
<path opacity="0.1" d="M97.6929 185.565C97.6929 185.565 100.683 185.697 102.311 186.443C103.938 187.189 97.6929 185.565 97.6929 185.565Z" fill="black"/>
<path d="M86.8271 112.022C86.8271 112.022 87.3098 121.159 87.0479 122.777C87.0479 122.777 88.1015 130.167 88.9815 132.045C89.8615 133.924 91.7539 136.288 91.7539 136.288L94.3497 118.148L93.7316 111.934L86.8271 112.022Z" fill="#EFB7B9"/>
<path d="M114.098 70.3952C119.708 70.3952 124.257 65.8735 124.257 60.2957C124.257 54.7179 119.708 50.1962 114.098 50.1962C108.487 50.1962 103.938 54.7179 103.938 60.2957C103.938 65.8735 108.487 70.3952 114.098 70.3952Z" fill="#EFB7B9"/>
<path d="M108.821 65.0148C108.821 65.0148 105.654 71.1822 102.487 74.0669C99.3205 76.9516 121.488 80.2313 122.015 80.2313C122.541 80.2313 118.056 67.1154 118.848 65.5326C119.64 63.9498 108.821 65.0148 108.821 65.0148Z" fill="#EFB7B9"/>
<path opacity="0.1" d="M131.253 135.205C130.756 135.583 130.207 135.888 129.623 136.112C125.579 137.686 121.179 139.872 118.189 139C115.198 138.128 108.865 139 108.865 139C108.865 139 96.1067 137.949 93.5609 138.561C92.4013 138.839 91.5007 138.827 90.9121 138.628C91.0269 137.572 91.1269 136.899 91.1269 136.899C91.1269 136.899 129.01 130.799 130.52 132.177C130.879 132.502 131.109 133.616 131.253 135.205Z" fill="black"/>
<path d="M134.023 129.377C134.023 129.377 133.672 133.751 129.623 135.325C125.573 136.899 121.179 139.085 118.189 138.213C115.199 137.341 108.865 138.213 108.865 138.213C108.865 138.213 96.1067 137.162 93.5609 137.774C91.0152 138.385 89.6878 137.601 90.4795 136.463C91.2712 135.325 91.1859 131.566 91.1859 129.992C91.1859 128.418 90.3029 122.034 91.0946 120.896C91.8863 119.757 92.5897 115.386 94.1731 114.684C94.4109 114.585 94.6231 114.433 94.7943 114.242C94.9654 114.05 95.0911 113.822 95.162 113.575C95.2928 113.049 95.2858 112.498 95.1414 111.975C95.1414 111.975 94.8735 111.756 94.5057 111.431C93.5727 110.603 91.9952 109.067 92.5014 108.564C93.2048 107.862 92.5014 103.315 92.5014 103.315C92.5014 103.315 90.8297 99.8188 91.4478 98.5081C92.0658 97.1974 86.0796 90.2869 86.0796 90.2869C86.0796 90.2869 86.0796 78.3969 93.2931 77.8703C93.2931 77.8703 98.3964 78.0458 99.0115 75.7726C99.6266 73.4993 103.673 72.1857 103.673 72.1857L112.912 74.1985C112.912 74.1985 121.091 75.954 122.589 74.8978C124.087 73.8416 125.237 76.2963 125.237 76.2963C125.237 76.2963 130.338 76.5596 130.865 77.6099C131.391 78.6602 129.196 88.8885 129.196 88.8885C129.196 88.8885 125.499 88.5403 125.764 92.4754C126.029 96.4104 124.34 101.396 124.34 101.396C124.34 101.396 124.075 104.281 124.251 104.892C124.416 105.457 123.904 107.657 123.822 107.996V108.04C123.822 108.04 123.454 109.503 123.931 110.024C123.975 110.071 124.027 110.11 124.084 110.141C124.79 110.489 125.85 113.9 125.85 113.9C126.399 114.562 126.681 115.404 126.641 116.261C126.556 117.663 127.083 120.983 129.37 122.908C131.656 124.834 134.023 129.377 134.023 129.377Z" fill="#A36468"/>
<path d="M94.788 109.126V109.497L94.629 113.593C94.629 113.593 89.2167 114.029 86.2707 113.3C83.3246 112.572 84.5637 109.322 84.6814 108.649C84.6825 108.64 84.6825 108.631 84.6814 108.622C84.7668 108.008 85.5643 102.894 85.5643 102.063C85.5643 101.232 85.5643 97.8206 85.4319 96.2466C85.2994 94.6726 86.0794 90.2869 86.0794 90.2869L86.6503 89.5906L92.8485 91.9517L94.788 109.126Z" fill="#A36468"/>
<path opacity="0.1" d="M94.7733 109.506L94.6144 113.602C94.6144 113.602 89.2021 114.038 86.256 113.309C83.31 112.581 84.549 109.33 84.6668 108.657L94.7733 109.506Z" fill="black"/>
<path opacity="0.1" d="M95.1617 113.578C95.2926 113.052 95.2855 112.501 95.1411 111.978C95.1411 111.978 94.8733 111.759 94.5054 111.434C99.1643 110.787 117.615 108.271 123.827 107.996V108.04C123.827 108.04 123.459 109.503 123.936 110.024L95.1617 113.578Z" fill="black"/>
<path opacity="0.1" d="M124.522 116.732C124.522 116.732 125.667 123.169 121.399 125.433C121.396 125.445 123.819 122.253 124.522 116.732Z" fill="black"/>
<path opacity="0.1" d="M96.5923 125.618C96.5923 125.618 106.893 123.862 108.909 125.226C110.925 126.589 96.5923 125.618 96.5923 125.618Z" fill="black"/>
<path opacity="0.1" d="M120.961 85.7843C120.961 85.7843 119.378 92.2559 120.564 93.7422C121.75 95.2284 120.961 85.7843 120.961 85.7843Z" fill="black"/>
<path opacity="0.1" d="M91.139 80.4946C91.139 80.4946 92.59 82.8995 91.71 85.3922C90.83 87.8849 91.139 80.4946 91.139 80.4946Z" fill="black"/>
<path opacity="0.1" d="M88.1396 101.571C88.1396 101.571 89.9879 102.663 89.3728 104.368C88.7577 106.074 88.1396 101.571 88.1396 101.571Z" fill="black"/>
<path opacity="0.1" d="M87.9722 96.586C87.9722 96.586 89.6851 97.5047 89.9058 98.8593C90.1265 100.214 87.9722 96.586 87.9722 96.586Z" fill="black"/>
<path opacity="0.1" d="M113.395 148.88C113.395 148.88 124.172 149.974 126.327 147.437C126.327 147.452 116.605 149.363 113.395 148.88Z" fill="black"/>
<path opacity="0.1" d="M94.7881 148.268C94.7881 148.268 106.357 150.98 108.644 148.836C108.644 148.836 98.7024 149.579 94.7881 148.268Z" fill="black"/>
<path opacity="0.1" d="M114.23 152.426C114.23 152.426 119.068 152.426 121.311 152.557C123.554 152.689 114.23 152.426 114.23 152.426Z" fill="black"/>
<path opacity="0.1" d="M95.5801 154.474C95.5801 154.474 97.9551 157.142 100.639 156.662C103.323 156.182 95.5801 154.474 95.5801 154.474Z" fill="black"/>
<path d="M100.245 45.2429C99.5 46.3927 99.4735 47.7239 99.2793 48.9995C98.8261 51.9808 97.3575 54.8685 95.0589 57.3026C92.9487 59.532 90.0556 61.5537 89.5082 64.2775C88.9902 66.8638 90.7473 69.3536 91.6685 71.8843C94.0965 78.5227 90.7061 85.4859 89.7172 92.3378C89.4435 94.2308 89.7731 96.6503 92.1188 97.2793C92.8516 97.4783 93.6904 97.452 94.3496 97.7679C95.2326 98.1892 95.5033 99.064 95.6652 99.851C96.2555 102.666 96.4595 105.548 96.2715 108.417C96.1655 110.027 96.0478 111.879 97.5782 112.984C98.2728 113.491 99.2087 113.748 100.112 113.991C102.523 114.637 105.639 115.161 107.264 113.643C107.947 113.008 108.203 112.113 109.053 111.609C110.328 110.857 112.135 111.367 113.739 111.446C117.032 111.609 120.058 109.69 121.355 107.376C122.653 105.062 122.533 102.402 122.062 99.9066C121.591 97.411 120.749 94.9329 120.69 92.3993C120.67 91.5216 120.749 90.6292 121.255 89.851C122.235 88.3443 124.516 87.6597 126.076 86.4748C128.999 84.2512 128.99 80.6087 127.927 77.5602C126.865 74.5116 124.958 71.5888 124.722 68.4378C124.617 67.6761 124.769 66.9013 125.155 66.2348C125.573 65.5941 126.303 65.1143 126.921 64.5847C131.185 61.0037 130.682 55.123 127.156 51.0973C123.254 46.6356 105.572 37.0247 100.245 45.2429Z" fill="#E3787D"/>
<g opacity="0.1">
<path opacity="0.1" d="M92.2101 74.6404C92.5427 71.9809 92.4809 69.3449 91.5361 66.7556C91.0711 65.4859 90.3972 64.2249 89.9057 62.9522C89.6601 63.4124 89.4818 63.9049 89.3759 64.4151C88.8579 67.0014 90.6149 69.4911 91.5361 72.0219C91.8462 72.8707 92.072 73.7478 92.2101 74.6404Z" fill="black"/>
<path opacity="0.1" d="M96.1392 103.289C96.3268 100.419 96.1238 97.5378 95.5359 94.7223C95.3711 93.9353 95.1003 93.0635 94.2174 92.6422C93.5581 92.3262 92.7194 92.3496 91.9865 92.1536C91.5363 92.0463 91.1166 91.8381 90.7596 91.5451C90.4025 91.252 90.1176 90.8817 89.9264 90.4625C89.791 91.1296 89.6733 91.7937 89.5761 92.4608C89.3024 94.3537 89.6321 96.7732 91.9777 97.4023C92.7105 97.5983 93.5493 97.572 94.2086 97.8879C95.0915 98.3092 95.3623 99.184 95.5271 99.971C95.797 101.277 95.9858 102.598 96.0921 103.927C96.1127 103.71 96.1245 103.499 96.1392 103.289Z" fill="black"/>
<path opacity="0.1" d="M121.226 102.25C119.925 104.573 116.899 106.484 113.606 106.32C112.002 106.238 110.195 105.735 108.924 106.484C108.073 106.984 107.814 107.882 107.131 108.517C105.507 110.024 102.39 109.512 99.9796 108.865C99.0761 108.619 98.1431 108.365 97.4456 107.859C96.7809 107.373 96.3323 106.649 96.1948 105.84C96.2124 106.738 96.1948 107.639 96.1389 108.537C96.0329 110.147 95.9152 111.999 97.4456 113.107C98.1431 113.611 99.0761 113.868 99.9796 114.111C102.39 114.758 105.507 115.281 107.131 113.763C107.814 113.128 108.073 112.233 108.924 111.715C110.195 110.963 112.002 111.472 113.606 111.551C116.899 111.715 119.925 109.796 121.226 107.481C122.474 105.246 122.418 102.718 121.982 100.305C121.818 100.984 121.564 101.638 121.226 102.25Z" fill="black"/>
<path opacity="0.1" d="M126.8 59.4706C126.17 59.9973 125.441 60.48 125.034 61.1207C124.649 61.7872 124.497 62.5621 124.602 63.3238C124.687 64.2812 124.891 65.2245 125.208 66.1324C125.698 65.6128 126.235 65.1388 126.812 64.7164C129.696 62.2969 130.397 58.8241 129.461 55.5824C128.967 57.1051 128.043 58.4547 126.8 59.4706Z" fill="black"/>
<path opacity="0.1" d="M125.944 81.3461C124.387 82.531 122.103 83.2185 121.126 84.7252C120.617 85.5035 120.537 86.4017 120.558 87.2706C120.594 88.2938 120.72 89.3119 120.935 90.3133C120.99 90.1949 121.054 90.0806 121.126 89.971C122.103 88.4643 124.387 87.7797 125.944 86.5948C128.613 84.5643 128.837 81.3519 128.048 78.4877C127.648 79.6271 126.915 80.6223 125.944 81.3461Z" fill="black"/>
</g>
<path d="M141.939 87.5778C141.939 87.5778 149.55 87.1857 150.209 83.9938C150.868 80.8019 148.149 77.5573 147.484 77.215C146.819 76.8727 139.643 71.4426 139.643 71.4426L128.077 64.0991C128.077 64.0991 122.535 48.3003 121.308 54.3478C120.081 60.3952 124.872 68.4262 124.872 68.4262C124.872 68.4262 131.512 72.6685 132.259 73.9353C133.007 75.2021 137.583 78.5257 137.583 78.5257L141.939 87.5778Z" fill="#EFB7B9"/>
<path d="M146.03 82.4168C144.229 86.9663 141.895 88.7598 141.895 88.7598H140.597L129.187 88.8768L127.872 85.3045L129.72 77.5631L130.862 77.6099C130.862 77.6099 132.227 78.3092 133.06 78.3092C133.893 78.3092 135.527 78.2653 136.003 78.4818C136.07 78.5141 136.145 78.5254 136.218 78.514C136.651 78.4701 137.101 77.8264 137.101 77.8264C137.101 77.8264 147.835 77.8703 146.03 82.4168Z" fill="#A36468"/>
<path opacity="0.1" d="M146.03 82.4168C144.229 86.9663 141.895 88.7597 141.895 88.7597H140.597C141.274 86.9575 142.701 83.2594 143.246 82.4051C143.779 81.5976 138.999 79.5877 136.203 78.5022C136.636 78.4583 137.086 77.8147 137.086 77.8147C137.086 77.8147 147.834 77.8703 146.03 82.4168Z" fill="black"/>
<path opacity="0.1" d="M26.7291 225.799C33.9103 225.799 39.7317 224.668 39.7317 223.271C39.7317 221.875 33.9103 220.744 26.7291 220.744C19.548 220.744 13.7266 221.875 13.7266 223.271C13.7266 224.668 19.548 225.799 26.7291 225.799Z" fill="#044395"/>
<path opacity="0.1" d="M243.476 208.438C248.706 208.438 252.947 207.614 252.947 206.598C252.947 205.582 248.706 204.758 243.476 204.758C238.245 204.758 234.005 205.582 234.005 206.598C234.005 207.614 238.245 208.438 243.476 208.438Z" fill="#044395"/>
<path opacity="0.1" d="M284.529 215.896C289.76 215.896 294 215.072 294 214.056C294 213.039 289.76 212.215 284.529 212.215C279.299 212.215 275.059 213.039 275.059 214.056C275.059 215.072 279.299 215.896 284.529 215.896Z" fill="#044395"/>
<path opacity="0.1" d="M220.961 231.256C226.192 231.256 230.432 230.432 230.432 229.415C230.432 228.399 226.192 227.575 220.961 227.575C215.731 227.575 211.49 228.399 211.49 229.415C211.49 230.432 215.731 231.256 220.961 231.256Z" fill="#044395"/>
<path d="M39.0165 153.102C39.0165 153.102 41.1473 155.872 38.0335 160.05C34.9197 164.228 32.3562 167.756 33.3981 170.363C33.3981 170.363 38.0923 162.601 41.9154 162.493C45.7385 162.385 43.2221 157.771 39.0165 153.102Z" fill="#044395"/>
<path opacity="0.1" d="M39.0164 153.102C39.2028 153.372 39.3494 153.668 39.4519 153.979C43.1808 158.336 45.1674 162.399 41.5827 162.502C38.2453 162.595 34.2397 168.532 33.2803 170.03C33.311 170.146 33.3493 170.26 33.3951 170.372C33.3951 170.372 38.0893 162.61 41.9124 162.502C45.7354 162.394 43.222 157.771 39.0164 153.102Z" fill="black"/>
<path d="M42.9749 156.63C42.9749 157.604 42.866 158.385 42.7306 158.385C42.5952 158.385 42.4834 157.595 42.4834 156.63C42.4834 155.664 42.6217 156.115 42.7571 156.115C42.8925 156.115 42.9749 155.644 42.9749 156.63Z" fill="#FFD037"/>
<path d="M44.3348 157.794C43.4754 158.26 42.7249 158.543 42.6602 158.423C42.5954 158.303 43.2488 157.838 44.0994 157.364C44.9499 156.89 44.6203 157.238 44.688 157.364C44.7557 157.49 45.1942 157.326 44.3348 157.794Z" fill="#FFD037"/>
<path d="M27.7708 153.102C27.7708 153.102 25.64 155.872 28.7538 160.05C31.8676 164.228 34.431 167.756 33.398 170.363C33.398 170.363 28.6891 162.601 24.863 162.493C21.037 162.385 23.5651 157.771 27.7708 153.102Z" fill="#044395"/>
<path opacity="0.1" d="M27.771 153.102C27.5846 153.372 27.4379 153.668 27.3354 153.979C23.6065 158.336 21.6199 162.399 25.2046 162.502C28.5421 162.595 32.5623 168.532 33.5071 170.03C33.476 170.146 33.4387 170.26 33.3952 170.372C33.3952 170.372 28.6863 162.61 24.8603 162.502C21.0343 162.394 23.5653 157.771 27.771 153.102Z" fill="black"/>
<path d="M23.8125 156.63C23.8125 157.604 23.9214 158.385 24.0568 158.385C24.1922 158.385 24.304 157.595 24.304 156.63C24.304 155.664 24.1657 156.115 24.0303 156.115C23.8949 156.115 23.8125 155.644 23.8125 156.63Z" fill="#FFD037"/>
<path d="M22.4527 157.794C23.315 158.26 24.0626 158.543 24.1302 158.423C24.1979 158.303 23.5416 157.838 22.6881 157.364C21.8346 156.89 22.1672 157.238 22.0995 157.364C22.0318 157.49 21.5933 157.326 22.4527 157.794Z" fill="#FFD037"/>
<path opacity="0.1" d="M33.3924 191.539C45.6887 191.539 55.6569 190.019 55.6569 188.143C55.6569 186.267 45.6887 184.746 33.3924 184.746C21.0961 184.746 11.1279 186.267 11.1279 188.143C11.1279 190.019 21.0961 191.539 33.3924 191.539Z" fill="#044395"/>
<path d="M44.8526 166.633L44.7466 167.511L44.5965 168.731L44.5347 169.24L44.3846 170.463L44.3199 170.972L44.1698 172.192L42.4687 186.071C42.3157 187.312 40.279 188.277 37.8186 188.277H28.9835C26.523 188.277 24.4894 187.312 24.3363 186.071L22.6323 172.189L22.4822 170.969L22.4204 170.46L22.2673 169.237L22.2055 168.728L22.0554 167.508L21.9495 166.63C21.8641 165.928 22.9648 165.337 24.3569 165.337H42.4628C43.8372 165.34 44.9409 165.931 44.8526 166.633Z" fill="#65617D"/>
<path d="M44.7435 167.496L44.5964 168.719H22.1877L22.0405 167.496H44.7435Z" fill="#9D9CB5"/>
<path d="M44.5321 169.228L44.385 170.448H22.403L22.2529 169.228H44.5321Z" fill="#9D9CB5"/>
<path d="M44.3202 170.957L44.1701 172.177H22.6149L22.4648 170.957H44.3202Z" fill="#9D9CB5"/>
<path opacity="0.1" d="M52.9724 45.6467C58.0925 45.6467 62.2431 41.5205 62.2431 36.4307C62.2431 31.3409 58.0925 27.2148 52.9724 27.2148C47.8523 27.2148 43.7017 31.3409 43.7017 36.4307C43.7017 41.5205 47.8523 45.6467 52.9724 45.6467Z" fill="#044395"/>
<path opacity="0.1" d="M33.5481 20.1932C36.7177 20.1932 39.2871 17.6389 39.2871 14.4881C39.2871 11.3372 36.7177 8.78296 33.5481 8.78296C30.3785 8.78296 27.8091 11.3372 27.8091 14.4881C27.8091 17.6389 30.3785 20.1932 33.5481 20.1932Z" fill="#044395"/>
<path opacity="0.1" d="M3.53171 30.7256C5.48222 30.7256 7.06342 29.1538 7.06342 27.2148C7.06342 25.2758 5.48222 23.704 3.53171 23.704C1.5812 23.704 0 25.2758 0 27.2148C0 29.1538 1.5812 30.7256 3.53171 30.7256Z" fill="#044395"/>
</g>
<defs>
<linearGradient id="paint0_linear" x1="117.317" y1="241.197" x2="117.317" y2="40.4946" gradientUnits="userSpaceOnUse">
<stop stop-color="#808080" stop-opacity="0.25"/>
<stop offset="0.54" stop-color="#808080" stop-opacity="0.12"/>
<stop offset="1" stop-color="#808080" stop-opacity="0.1"/>
</linearGradient>
<clipPath id="clip0">
<rect width="294" height="244" fill="white"/>
</clipPath>
</defs>
</svg>
