<svg width="603" height="434" viewBox="0 0 603 434" fill="none" xmlns="http://www.w3.org/2000/svg">
<g clip-path="url(#clip0)">
<path d="M603 434C571.929 429.447 542.048 425.523 513.357 422.226L524.702 403.86C520.877 402.73 504.072 413.2 504.072 413.2L518.965 359.803C499.729 361.657 489.94 416.203 489.94 416.203L468.452 397.647L478.853 418.446C391.041 409.378 315.202 405.816 251.413 405.405L261.123 389.685C257.299 388.555 240.493 399.025 240.493 399.025L255.386 345.629C236.15 347.482 226.362 402.029 226.362 402.029L204.873 383.472L215.89 405.501C162.413 406.15 118.803 409.005 85.1421 412.335C94.965 387.822 128.325 364.619 128.325 364.619C102.85 370.847 89.4857 381.418 82.5018 391.299C81.968 360.975 85.5592 304.772 112.241 242.655C112.241 242.655 59.5722 338.377 66.2815 402.825L67.0834 414.267C22.4434 419.414 -3.05176e-05 424.879 -3.05176e-05 424.879L603 434Z" fill="#3F3D56"/>
<path d="M320.636 17.3831V404.19C320.632 408.798 318.799 413.216 315.541 416.473C312.283 419.73 307.866 421.56 303.26 421.562H146.29C144.008 421.566 141.748 421.119 139.639 420.248C137.53 419.376 135.613 418.097 133.999 416.483C132.385 414.87 131.105 412.953 130.232 410.844C129.36 408.734 128.912 406.473 128.914 404.19V17.3831C128.914 15.1003 129.363 12.8398 130.236 10.7307C131.11 8.62158 132.389 6.70521 134.003 5.091C135.617 3.4768 137.532 2.19638 139.64 1.32286C141.749 0.449354 144.008 -0.00013566 146.29 6.18507e-05H169.781V3.0136C169.78 6.8095 171.287 10.4502 173.969 13.1348C176.652 15.8195 180.29 17.3283 184.085 17.3294H263.921C266.975 17.3359 269.95 16.3565 272.403 14.5367C272.899 14.1758 273.369 13.781 273.811 13.3551C275.208 12.0202 276.32 10.4153 277.079 8.63758C277.837 6.8599 278.227 4.94656 278.225 3.0136V6.18507e-05H303.26C305.542 -0.000637548 307.802 0.448512 309.91 1.32184C312.019 2.19518 313.935 3.47558 315.548 5.08988C317.162 6.70419 318.442 8.62076 319.315 10.7301C320.188 12.8394 320.637 15.1001 320.636 17.3831Z" fill="#3F3D56"/>
<path d="M172.644 68.6252C174.95 68.6252 176.819 66.755 176.819 64.448C176.819 62.141 174.95 60.2708 172.644 60.2708C170.338 60.2708 168.468 62.141 168.468 64.448C168.468 66.755 170.338 68.6252 172.644 68.6252Z" fill="#F2F2F2"/>
<path d="M273.811 13.3551C273.369 13.781 272.899 14.1758 272.403 14.5367C277.517 23.5396 284.445 31.3812 292.748 37.5642C301.051 43.7472 310.548 48.1368 320.636 50.4545V48.5926C310.82 46.2762 301.591 41.9487 293.532 35.8837C285.472 29.8186 278.757 22.1476 273.811 13.3551Z" fill="#044395"/>
<path d="M238.134 17.3293H236.177C243.123 34.9845 254.579 50.5069 269.4 62.3452C284.221 74.1836 301.888 81.9233 320.636 84.7909V82.941C302.376 80.1042 285.169 72.5635 270.704 61.06C256.239 49.5565 245.015 34.486 238.134 17.3293Z" fill="#044395"/>
<path d="M202.093 17.3293H200.208C215.974 72.0743 263.545 112.826 320.636 119.444V117.624C264.535 111.036 217.781 71.0599 202.093 17.3293Z" fill="#044395"/>
<path d="M158.924 95.3723H157.837V94.285H157.625V95.3723H156.538V95.5847H157.625V96.672H157.837V95.5847H158.924V95.3723Z" fill="#F2F2F2"/>
<path d="M232.294 41.0689H231.207V39.9816H230.995V41.0689H229.908V41.2813H230.995V42.3686H231.207V41.2813H232.294V41.0689Z" fill="#F2F2F2"/>
<path d="M169.661 138.338H168.574V137.25H168.362V138.338H167.275V138.55H168.362V139.637H168.574V138.55H169.661V138.338Z" fill="#F2F2F2"/>
<path d="M219.767 106.71H218.68V105.623H218.469V106.71H217.381V106.923H218.469V108.01H218.68V106.923H219.767V106.71Z" fill="#F2F2F2"/>
<path d="M291.348 126.403H290.261V125.316H290.049V126.403H288.962V126.615H290.049V127.702H290.261V126.615H291.348V126.403Z" fill="#F2F2F2"/>
<path d="M278.821 76.9795C280.139 76.9795 281.207 75.9109 281.207 74.5926C281.207 73.2743 280.139 72.2056 278.821 72.2056C277.504 72.2056 276.435 73.2743 276.435 74.5926C276.435 75.9109 277.504 76.9795 278.821 76.9795Z" fill="#FF6584"/>
<path d="M193.342 130.567L191.988 130.776C192.412 133.485 192.746 136.254 192.991 138.993L194.357 138.873C194.112 136.099 193.772 133.306 193.342 130.567Z" fill="#E6E6E6"/>
<path d="M189.638 114.252L188.326 114.652C189.119 117.277 189.829 119.969 190.431 122.648L191.774 122.344C191.159 119.635 190.437 116.913 189.638 114.252Z" fill="#E6E6E6"/>
<path d="M183.727 98.6054L182.48 99.1783C183.625 101.679 184.699 104.245 185.671 106.811L186.954 106.327C185.97 103.731 184.89 101.13 183.727 98.6054Z" fill="#E6E6E6"/>
<path d="M175.734 83.9375L174.576 84.6715C176.05 86.9868 177.464 89.3857 178.776 91.7906L179.981 91.1342C178.657 88.6995 177.225 86.2767 175.734 83.9375Z" fill="#E6E6E6"/>
<path d="M165.796 70.493L164.752 71.3821C166.53 73.4707 168.259 75.6548 169.894 77.8627L170.991 77.0452C169.345 74.8134 167.597 72.6054 165.796 70.493Z" fill="#E6E6E6"/>
<path d="M154.116 58.5224L153.204 59.5428C155.256 61.3748 157.266 63.3023 159.181 65.2656L160.165 64.3048C158.226 62.3176 156.192 60.3722 154.116 58.5224Z" fill="#E6E6E6"/>
<path d="M140.922 48.2465L140.152 49.3803C142.431 50.9139 144.686 52.549 146.851 54.2377L147.698 53.1576C145.503 51.451 143.224 49.798 140.922 48.2465Z" fill="#E6E6E6"/>
<path d="M128.914 41.1095V42.661C130.34 43.407 131.754 44.1887 133.137 44.9883L133.823 43.8008C132.213 42.8698 130.576 41.9727 128.914 41.1095Z" fill="#E6E6E6"/>
<path d="M193.032 259.465C193.255 258.13 193.458 256.768 193.638 255.416L194.997 255.596C194.816 256.963 194.61 258.34 194.385 259.69L193.032 259.465Z" fill="#E6E6E6"/>
<path d="M189.209 275.564L190.52 275.973C191.343 273.321 192.087 270.604 192.732 267.898L191.396 267.582C190.757 270.259 190.026 272.942 189.209 275.564Z" fill="#E6E6E6"/>
<path d="M183.22 290.979L184.464 291.563C185.647 289.052 186.755 286.464 187.76 283.874L186.48 283.375C185.487 285.937 184.391 288.496 183.22 290.979Z" fill="#E6E6E6"/>
<path d="M175.16 305.44L176.31 306.187C177.827 303.86 179.283 301.448 180.638 299.021L179.441 298.349C178.104 300.75 176.661 303.134 175.16 305.44Z" fill="#E6E6E6"/>
<path d="M165.188 318.651L166.228 319.552C168.053 317.447 169.822 315.257 171.499 313.042L170.4 312.22C168.747 314.409 166.996 316.572 165.188 318.651Z" fill="#E6E6E6"/>
<path d="M153.512 330.374L154.415 331.406C156.513 329.575 158.564 327.644 160.524 325.682L159.554 324.71C157.616 326.652 155.582 328.557 153.512 330.374Z" fill="#E6E6E6"/>
<path d="M140.357 340.394L141.115 341.542C143.431 340.012 145.731 338.381 147.938 336.701L147.109 335.605C144.923 337.272 142.651 338.884 140.357 340.394Z" fill="#E6E6E6"/>
<path d="M133.978 345.901C132.32 346.838 130.626 347.745 128.914 348.604V347.064C130.393 346.312 131.861 345.519 133.298 344.713L133.978 345.901Z" fill="#E6E6E6"/>
<path d="M193.435 147.458L194.806 147.433C194.831 148.818 194.833 150.211 194.812 151.572L193.441 151.551C193.461 150.205 193.46 148.828 193.435 147.458Z" fill="#E6E6E6"/>
<path d="M134.939 179.996H275.242C285.684 179.996 295.697 184.145 303.081 191.532C310.464 198.918 314.612 208.935 314.612 219.381V224.594H174.308C163.867 224.594 153.853 220.445 146.47 213.059C139.087 205.673 134.939 195.655 134.939 185.209V179.996Z" fill="white"/>
<path d="M228.053 421.013C227.916 420.79 224.688 415.398 223.569 404.202C222.543 393.93 223.203 376.617 232.178 352.466C249.182 306.713 228.26 269.797 228.046 269.43L229.078 268.831C229.132 268.924 234.531 278.336 237.72 293.323C241.934 313.193 240.4 333.853 233.297 352.882C216.322 398.556 228.942 420.178 229.071 420.392L228.053 421.013Z" fill="#F2F2F2"/>
<path d="M221.404 266.743C225.687 266.743 229.158 263.27 229.158 258.985C229.158 254.701 225.687 251.228 221.404 251.228C217.121 251.228 213.649 254.701 213.649 258.985C213.649 263.27 217.121 266.743 221.404 266.743Z" fill="#044395"/>
<path d="M245.861 295.387C250.143 295.387 253.615 291.913 253.615 287.629C253.615 283.345 250.143 279.871 245.861 279.871C241.578 279.871 238.106 283.345 238.106 287.629C238.106 291.913 241.578 295.387 245.861 295.387Z" fill="#F2F2F2"/>
<path d="M229.158 314.482C233.441 314.482 236.913 311.009 236.913 306.725C236.913 302.44 233.441 298.967 229.158 298.967C224.876 298.967 221.404 302.44 221.404 306.725C221.404 311.009 224.876 314.482 229.158 314.482Z" fill="#044395"/>
<path d="M249.44 330.594C253.722 330.594 257.194 327.121 257.194 322.837C257.194 318.552 253.722 315.079 249.44 315.079C245.157 315.079 241.685 318.552 241.685 322.837C241.685 327.121 245.157 330.594 249.44 330.594Z" fill="#044395"/>
<path d="M223.193 355.658C227.476 355.658 230.948 352.184 230.948 347.9C230.948 343.615 227.476 340.142 223.193 340.142C218.911 340.142 215.439 343.615 215.439 347.9C215.439 352.184 218.911 355.658 223.193 355.658Z" fill="#F2F2F2"/>
<path d="M232.737 421.299C232.737 421.299 224.983 402.203 248.247 387.881L232.737 421.299Z" fill="#F2F2F2"/>
<path d="M223.201 420.952C223.201 420.952 219.671 400.646 192.356 400.82L223.201 420.952Z" fill="#F2F2F2"/>
<path opacity="0.2" d="M192.328 250.034C218.684 250.034 240.049 228.661 240.049 202.295C240.049 175.929 218.684 154.556 192.328 154.556C165.973 154.556 144.608 175.929 144.608 202.295C144.608 228.661 165.973 250.034 192.328 250.034Z" fill="#044395"/>
<path opacity="0.2" d="M192.328 235.914C210.888 235.914 225.934 220.862 225.934 202.295C225.934 183.728 210.888 168.676 192.328 168.676C173.768 168.676 158.723 183.728 158.723 202.295C158.723 220.862 173.768 235.914 192.328 235.914Z" fill="#044395"/>
<path d="M192.328 224.484C204.578 224.484 214.508 214.55 214.508 202.295C214.508 190.041 204.578 180.106 192.328 180.106C180.079 180.106 170.149 190.041 170.149 202.295C170.149 214.55 180.079 224.484 192.328 224.484Z" fill="#044395"/>
<path d="M196.361 197.509C196.361 196.828 196.189 196.159 195.861 195.562C195.533 194.966 195.059 194.462 194.484 194.098C193.908 193.734 193.25 193.522 192.571 193.481C191.892 193.44 191.213 193.572 190.598 193.864C189.984 194.156 189.453 194.599 189.055 195.152C188.658 195.704 188.406 196.349 188.325 197.024C188.243 197.7 188.334 198.386 188.588 199.017C188.843 199.649 189.253 200.205 189.781 200.636L188.296 211.036H196.361L194.876 200.636C195.34 200.258 195.715 199.781 195.972 199.24C196.228 198.699 196.362 198.108 196.361 197.509Z" fill="white"/>
<path d="M415.23 31.8063C415.23 31.8063 401.927 19.8746 384.036 42.3613C366.146 64.8481 338.163 75.862 331.741 84.5814C331.741 84.5814 358.348 73.5675 367.522 68.9783C376.697 64.3892 376.238 65.307 376.238 65.307C376.238 65.307 363.852 74.0264 361.559 82.7457C359.265 91.4651 361.1 98.8077 356.971 107.527C352.843 116.246 435.873 113.493 435.873 113.493C435.873 113.493 444.13 99.2667 441.837 84.5814C439.543 69.8962 440.919 33.642 415.23 31.8063Z" fill="#2F2E41"/>
<path d="M390.068 69.3425C390.068 69.3425 392.961 89.5999 380.563 94.1475C368.166 98.6951 372.712 104.896 372.712 104.896L391.308 113.992L411.144 107.79L417.756 97.8683C417.756 97.8683 407.011 95.3878 409.904 87.9463C412.797 80.5047 413.623 78.0243 413.623 78.0243L390.068 69.3425Z" fill="#FFB9B9"/>
<path opacity="0.1" d="M390.068 69.3425C390.068 69.3425 392.961 89.5999 380.563 94.1475C368.166 98.6951 372.712 104.896 372.712 104.896L391.308 113.992L411.144 107.79L417.756 97.8683C417.756 97.8683 407.011 95.3878 409.904 87.9463C412.797 80.5047 413.623 78.0243 413.623 78.0243L390.068 69.3425Z" fill="black"/>
<path d="M442.138 127.221C442.138 127.221 439.245 165.255 440.072 166.909C440.898 168.562 440.072 226.027 440.072 226.027C440.072 226.027 445.857 257.034 438.419 258.687C430.98 260.341 432.633 223.96 432.633 223.96L425.194 176.004L426.021 128.461L442.138 127.221Z" fill="#FFB9B9"/>
<path opacity="0.1" d="M442.138 127.221C442.138 127.221 439.245 165.255 440.072 166.909C440.898 168.562 440.072 226.027 440.072 226.027C440.072 226.027 445.857 257.034 438.419 258.687C430.98 260.341 432.633 223.96 432.633 223.96L425.194 176.004L426.021 128.461L442.138 127.221Z" fill="black"/>
<path d="M361.554 241.737C361.554 241.737 347.916 293.414 348.33 318.633C348.743 343.851 354.115 378.991 354.115 378.991C354.115 378.991 354.942 394.288 353.702 395.942C352.462 397.595 359.901 404.623 359.901 404.623L367.752 400.076L370.645 396.768V393.874C370.645 393.874 366.099 379.818 369.819 368.656C373.538 357.494 375.604 329.382 371.885 320.7L397.507 244.631L361.554 241.737Z" fill="#FFB9B9"/>
<path d="M360.727 398.009C360.727 398.009 355.768 391.807 352.462 393.875C349.156 395.942 343.784 409.998 343.784 409.998C343.784 409.998 325.188 427.775 338.412 428.602C351.636 429.428 357.421 424.881 359.074 421.573C360.727 418.266 376.018 409.584 376.018 409.584C376.018 409.584 374.365 393.875 371.885 393.461C369.406 393.048 365.686 399.662 365.686 399.662L360.727 398.009Z" fill="#2F2E41"/>
<path d="M406.598 245.045V296.308C406.646 302.528 407.06 308.74 407.838 314.912C409.078 324.007 400.813 391.807 400.813 391.807L401.639 403.797L411.97 402.97L413.21 392.634L428.087 347.159C428.087 347.159 433.046 319.46 430.567 309.124C428.087 298.789 443.378 232.642 443.378 232.642L406.598 245.045Z" fill="#FFB9B9"/>
<path d="M398.333 400.903L401.394 400.237C401.394 400.237 403.705 395.115 406.598 396.355C408.634 397.294 410.562 398.45 412.35 399.803L413.623 402.143C413.623 402.143 416.516 408.344 420.235 412.478C423.955 416.612 428.087 425.708 421.888 426.534C415.69 427.361 407.425 427.775 404.945 425.708C402.466 423.641 404.119 420.333 401.639 419.506C399.16 418.68 397.093 416.199 397.507 415.372C397.92 414.545 398.333 400.903 398.333 400.903Z" fill="#2F2E41"/>
<path d="M406.598 83.5821C416.742 83.5821 424.965 75.3559 424.965 65.2084C424.965 55.0608 416.742 46.8346 406.598 46.8346C396.455 46.8346 388.232 55.0608 388.232 65.2084C388.232 75.3559 396.455 83.5821 406.598 83.5821Z" fill="#FFB9B9"/>
<path d="M371.885 97.4548L377.344 95.5483C377.344 95.5483 375.191 99.1085 386.762 101.176C398.333 103.243 410.316 103.975 415.689 97.2006C415.689 97.2006 417.756 96.2146 420.649 99.1085C423.541 102.002 425.194 101.176 425.194 101.176L423.128 111.924L418.996 131.768L413.623 146.651L398.333 143.344L381.803 131.355L375.604 115.232V100.349L371.885 97.4548Z" fill="#044395"/>
<path d="M422.302 103.243L426.434 100.349C426.434 100.349 440.485 102.829 441.311 109.444L430.567 130.115C432.758 135.866 432.61 142.248 430.153 147.892C426.021 157.4 426.434 159.467 426.434 159.467L423.541 171.87L371.058 176.004C371.058 176.004 368.992 171.043 368.166 170.216C367.339 169.389 367.339 166.495 368.166 166.495C368.992 166.495 368.166 165.255 367.339 164.015C366.513 162.775 366.099 162.361 367.339 160.708C368.579 159.054 365.273 144.171 365.273 144.171V128.048L351.222 109.444C351.222 109.444 356.181 102.002 358.661 101.176C361.14 100.349 372.935 97.088 372.935 97.088L375.604 101.019L379.323 130.942L384.696 149.132L407.316 145.287L416.103 130.528L421.888 113.165L422.302 103.243Z" fill="#044395"/>
<path d="M438.005 106.963L441.311 109.444C441.311 109.444 444.204 132.595 443.378 134.249C442.551 135.903 428.087 137.556 427.674 136.729C427.261 135.903 438.005 106.963 438.005 106.963Z" fill="#044395"/>
<path d="M369.819 95.3878L373.951 122.673C373.951 122.673 370.232 163.188 371.058 171.456L371.885 173.937C371.885 173.937 370.232 173.11 369.819 174.764C369.405 176.417 369.819 181.792 369.819 181.792C369.819 181.792 367.339 184.272 366.513 197.915C365.686 211.558 355.768 244.218 359.487 245.458C363.207 246.698 385.522 252.899 397.507 251.659C409.491 250.419 452.469 235.949 452.056 232.229C451.643 228.508 430.98 176.004 430.98 176.004C430.98 176.004 427.261 169.803 427.261 168.976C427.261 168.149 432.22 164.842 430.98 161.534C429.74 158.227 423.128 123.5 423.128 123.5L427.674 98.6951L421.475 97.0414L416.929 121.02C416.929 121.02 399.16 129.701 380.563 121.846L376.431 93.7341L369.819 95.3878Z" fill="#2F2E41"/>
<path d="M389.702 52.0221C389.702 52.0221 420.282 73.1063 428.547 63.5977C436.812 54.0891 414.083 45.8208 414.083 45.8208L395.074 43.7537L389.702 52.0221Z" fill="#2F2E41"/>
<path d="M342.187 276.316C345.335 278.66 349.229 279.775 353.139 279.452C357.05 279.129 360.709 277.391 363.43 274.563C366.151 271.734 367.747 268.01 367.92 264.088C368.093 260.167 366.83 256.317 364.368 253.26C361.906 250.203 358.414 248.149 354.547 247.484C350.68 246.818 346.703 247.586 343.362 249.644C340.02 251.702 337.544 254.909 336.396 258.663C335.249 262.417 335.51 266.461 337.129 270.036L294.953 305.167L289.337 298.5L286.814 300.188L284.006 296.854L286.313 294.909L283.505 291.575L279.916 294.6L281.644 296.652L277.799 299.893L276.071 297.842L270.431 302.595L273.023 305.673L275.074 303.944L277.882 307.278L275.318 309.439L280.502 315.594L274.35 320.78L280.614 328.217L342.187 276.316ZM352.718 252.749C354.82 252.929 356.821 253.728 358.469 255.046C360.117 256.363 361.337 258.14 361.976 260.152C362.614 262.163 362.642 264.319 362.056 266.346C361.47 268.374 360.296 270.182 358.682 271.541C357.069 272.901 355.089 273.752 352.992 273.986C350.896 274.22 348.777 273.827 346.904 272.856C345.03 271.886 343.487 270.381 342.469 268.533C341.45 266.684 341.002 264.576 341.182 262.473C341.423 259.653 342.773 257.045 344.937 255.221C347.1 253.398 349.899 252.508 352.718 252.749V252.749Z" fill="#044395"/>
<path d="M348.33 132.182C348.33 132.182 351.222 170.216 350.396 171.87C349.569 173.524 350.396 230.988 350.396 230.988C350.396 230.988 344.61 261.995 352.049 263.648C359.487 265.302 357.834 228.921 357.834 228.921L365.273 180.965L364.446 133.422L348.33 132.182Z" fill="#FFB9B9"/>
<path d="M354.528 108.204L351.222 109.444C351.222 109.444 345.024 135.489 346.677 135.489C348.33 135.489 368.166 137.97 368.166 137.143C368.166 136.316 364.446 116.059 364.446 116.059L354.528 108.204Z" fill="#044395"/>
</g>
<defs>
<clipPath id="clip0">
<rect width="603" height="434" fill="white"/>
</clipPath>
</defs>
</svg>
