<svg width="519" height="372" viewBox="0 0 519 372" fill="none" xmlns="http://www.w3.org/2000/svg">
<g clip-path="url(#clip0)">
<path opacity="0.1" d="M510.782 250.093C498.744 274.961 474.302 291.589 448.972 302.555C414.871 317.324 377.318 323.181 340.281 320.704C333.79 320.271 327.319 319.58 320.868 318.63C298.462 315.357 276.617 308.987 255.959 299.702C249.997 297.013 244.156 294.077 238.435 290.895C228.881 285.592 219.726 279.596 211.044 272.956C208.86 271.286 206.707 269.574 204.584 267.82C203.111 266.604 201.652 265.36 200.171 264.154C197.045 261.608 193.828 259.19 190.24 257.38C189.157 256.833 188.047 256.342 186.915 255.91C175.552 251.581 162.45 253.215 150.621 256.59C141.623 259.158 132.852 262.674 123.864 265.183C119.866 266.333 115.792 267.201 111.672 267.779C102.475 268.945 93.1345 268.123 84.2808 265.369L83.5242 265.134C82.2557 264.734 80.9977 264.297 79.7503 263.822L78.9937 263.532C77.7856 263.066 76.6031 262.566 75.4463 262.03L74.6898 261.685C73.4816 261.123 72.2992 260.528 71.1424 259.902C70.7256 259.685 70.3133 259.449 69.9055 259.226C63.3239 255.545 57.3414 250.88 52.1641 245.393C52.0146 245.243 51.8742 245.089 51.7111 244.939C50.9907 244.159 50.284 243.365 49.5999 242.552C49.3462 242.253 49.0924 241.954 48.8433 241.645C48.0308 240.653 47.247 239.638 46.4919 238.601C46.3787 238.451 46.2699 238.297 46.1612 238.147C43.0676 233.861 40.5028 229.216 38.5228 224.313C38.4594 224.164 38.4005 224.009 38.3461 223.86C37.742 222.302 37.1908 220.719 36.6925 219.109C36.4886 218.438 36.2938 217.748 36.1216 217.077C36.0627 216.877 36.0084 216.673 35.9585 216.473C33.4577 206.614 33.1723 196.365 33.1723 186.175C33.1723 184.986 33.1723 183.799 33.1723 182.613C33.2448 166.13 33.4985 149.365 35.9268 133.109C35.9268 132.996 35.9585 132.882 35.9767 132.773C36.7894 127.3 37.8949 121.875 39.2885 116.521C40.7469 110.904 42.6108 105.399 44.8655 100.052C50.4516 86.8942 58.5748 74.9209 67.595 63.8232C90.3154 35.8974 120.113 12.4543 154.988 3.67958C192.569 -5.77117 234.335 3.28485 264.649 27.4539C273.891 34.8221 282.196 43.5469 292.575 49.1956C301.636 54.1138 312.242 56.1509 321.946 52.2808C329.965 49.0822 335.184 47.4942 344.191 47.9797C362.837 49.036 381.218 52.8917 398.72 59.4176C399.427 59.6763 400.133 59.9439 400.836 60.2116C446.462 77.693 485.683 112.424 506.07 157.056C506.611 158.235 507.135 159.424 507.642 160.622C519.797 189.056 524.192 222.381 510.782 250.093Z" fill="#044395"/>
<path opacity="0.1" d="M54.5019 337.101C76.5906 337.101 94.4971 334.22 94.4971 330.667C94.4971 327.114 76.5906 324.234 54.5019 324.234C32.4131 324.234 14.5067 327.114 14.5067 330.667C14.5067 334.22 32.4131 337.101 54.5019 337.101Z" fill="#044395"/>
<path opacity="0.1" d="M413.299 372C452.465 372 484.215 368.912 484.215 365.104C484.215 361.295 452.465 358.207 413.299 358.207C374.133 358.207 342.383 361.295 342.383 365.104C342.383 368.912 374.133 372 413.299 372Z" fill="#044395"/>
<path d="M477.505 48.8871H58.2758C55.1506 48.8871 52.6172 51.4242 52.6172 54.5539V287.465C52.6172 290.595 55.1506 293.132 58.2758 293.132H477.505C480.63 293.132 483.164 290.595 483.164 287.465V54.5539C483.164 51.4242 480.63 48.8871 477.505 48.8871Z" fill="url(#paint0_linear)"/>
<path d="M476.871 52.3216H58.9599C55.8347 52.3216 53.3013 54.8588 53.3013 57.9885V286.653C53.3013 289.783 55.8347 292.32 58.9599 292.32H476.871C479.996 292.32 482.53 289.783 482.53 286.653V57.9885C482.53 54.8588 479.996 52.3216 476.871 52.3216Z" fill="white"/>
<path d="M476.871 52.3216H58.9599C55.8347 52.3216 53.3013 54.8588 53.3013 57.9885V286.653C53.3013 289.783 55.8347 292.32 58.9599 292.32H476.871C479.996 292.32 482.53 289.783 482.53 286.653V57.9885C482.53 54.8588 479.996 52.3216 476.871 52.3216Z" fill="white"/>
<path opacity="0.04" d="M476.871 52.3216H58.9599C55.8347 52.3216 53.3013 54.8588 53.3013 57.9885V286.653C53.3013 289.783 55.8347 292.32 58.9599 292.32H476.871C479.996 292.32 482.53 289.783 482.53 286.653V57.9885C482.53 54.8588 479.996 52.3216 476.871 52.3216Z" fill="white"/>
<path d="M480.35 49.5676H55.4805C54.9025 49.5676 54.3482 49.7976 53.9396 50.2068C53.5309 50.6161 53.3013 51.1712 53.3013 51.75V60.9739H482.511V51.75C482.511 51.1743 482.284 50.622 481.88 50.2132C481.475 49.8045 480.925 49.5724 480.35 49.5676Z" fill="#5A5773"/>
<path d="M61.873 58.2199C63.4994 58.2199 64.8178 56.8995 64.8178 55.2707C64.8178 53.642 63.4994 52.3216 61.873 52.3216C60.2466 52.3216 58.9282 53.642 58.9282 55.2707C58.9282 56.8995 60.2466 58.2199 61.873 58.2199Z" fill="white"/>
<path d="M69.8013 58.2199C71.4277 58.2199 72.7462 56.8995 72.7462 55.2707C72.7462 53.642 71.4277 52.3216 69.8013 52.3216C68.175 52.3216 66.8565 53.642 66.8565 55.2707C66.8565 56.8995 68.175 58.2199 69.8013 58.2199Z" fill="white"/>
<path d="M77.7297 58.2199C79.3561 58.2199 80.6745 56.8995 80.6745 55.2707C80.6745 53.642 79.3561 52.3216 77.7297 52.3216C76.1033 52.3216 74.7849 53.642 74.7849 55.2707C74.7849 56.8995 76.1033 58.2199 77.7297 58.2199Z" fill="white"/>
<path opacity="0.2" d="M203.841 82.4252H88.6527V92.2162H203.841V82.4252Z" fill="#044395"/>
<path opacity="0.1" d="M447.178 121.685H88.6527V272.298H447.178V121.685Z" fill="#5A5773"/>
<path opacity="0.1" d="M298.573 131.507H292.434V119.566C292.434 106.091 281.706 94.8886 268.251 94.6844C265.006 94.6503 261.787 95.2595 258.778 96.477C255.77 97.6945 253.032 99.4963 250.722 101.778C248.412 104.06 246.576 106.778 245.319 109.774C244.063 112.77 243.411 115.985 243.401 119.235V131.507H237.276C234.569 131.516 231.975 132.596 230.061 134.513C228.147 136.43 227.068 139.028 227.059 141.738V190.839C227.068 193.55 228.147 196.147 230.061 198.064C231.975 199.981 234.569 201.062 237.276 201.07H298.573C301.28 201.062 303.873 199.981 305.786 198.064C307.7 196.147 308.778 193.549 308.785 190.839V141.738C308.778 139.028 307.7 136.431 305.786 134.514C303.873 132.597 301.28 131.516 298.573 131.507ZM271.504 163.426V181.011C271.509 181.943 271.162 182.841 270.531 183.525C269.9 184.209 269.033 184.628 268.106 184.696C267.622 184.718 267.138 184.642 266.684 184.473C266.23 184.303 265.815 184.042 265.464 183.707C265.114 183.372 264.834 182.969 264.644 182.523C264.453 182.077 264.354 181.597 264.354 181.111V163.417C262.697 162.607 261.363 161.259 260.569 159.592C259.775 157.926 259.568 156.039 259.983 154.239C260.398 152.44 261.409 150.835 262.852 149.685C264.295 148.535 266.085 147.91 267.929 147.91C269.773 147.91 271.562 148.535 273.006 149.685C274.449 150.835 275.46 152.44 275.875 154.239C276.29 156.039 276.083 157.926 275.289 159.592C274.495 161.259 273.161 162.607 271.504 163.417V163.426ZM285.294 131.507H250.55V119.235C250.55 114.622 252.38 110.199 255.636 106.938C258.893 103.676 263.31 101.844 267.915 101.844C272.521 101.844 276.938 103.676 280.195 106.938C283.451 110.199 285.281 114.622 285.281 119.235L285.294 131.507Z" fill="black"/>
<path d="M298.573 130.6H292.434V118.658C292.434 105.183 281.706 93.9812 268.251 93.777C265.006 93.7428 261.787 94.3521 258.778 95.5696C255.77 96.7871 253.032 98.5889 250.722 100.871C248.412 103.153 246.576 105.87 245.319 108.866C244.063 111.862 243.411 115.078 243.401 118.327V130.6H237.276C234.569 130.608 231.975 131.689 230.061 133.606C228.147 135.523 227.068 138.12 227.059 140.831V189.931C227.068 192.642 228.147 195.24 230.061 197.157C231.975 199.074 234.569 200.154 237.276 200.163H298.573C301.28 200.154 303.873 199.073 305.786 197.156C307.7 195.239 308.778 192.642 308.785 189.931V140.831C308.778 138.121 307.7 135.523 305.786 133.606C303.873 131.689 301.28 130.608 298.573 130.6ZM271.504 162.518V180.104C271.509 181.035 271.162 181.934 270.531 182.618C269.9 183.302 269.033 183.72 268.106 183.788C267.622 183.811 267.138 183.735 266.684 183.565C266.23 183.395 265.815 183.135 265.464 182.8C265.114 182.465 264.834 182.062 264.644 181.616C264.453 181.17 264.354 180.689 264.354 180.204V162.509C262.697 161.7 261.363 160.352 260.569 158.685C259.775 157.018 259.568 155.131 259.983 153.332C260.398 151.533 261.409 149.927 262.852 148.778C264.295 147.628 266.085 147.002 267.929 147.002C269.773 147.002 271.562 147.628 273.006 148.778C274.449 149.927 275.46 151.533 275.875 153.332C276.29 155.131 276.083 157.018 275.289 158.685C274.495 160.352 273.161 161.7 271.504 162.509V162.518ZM285.294 130.6H250.55V118.327C250.55 113.715 252.38 109.291 255.636 106.03C258.893 102.769 263.31 100.937 267.915 100.937C272.521 100.937 276.938 102.769 280.195 106.03C283.451 109.291 285.281 113.715 285.281 118.327L285.294 130.6Z" fill="#044395"/>
<path opacity="0.1" d="M447.178 107.189H410.889V115.768H447.178V107.189Z" fill="#5A5773"/>
<path d="M459.528 367.182C459.289 365.979 458.88 364.816 458.314 363.729L452.877 355.598H452.909C452.909 355.598 452.053 351.515 452.909 349.51C453.765 347.504 449.856 342.572 449.856 342.572C449.856 342.572 449.38 341.334 450.621 339.809C451.863 338.285 449.856 333.82 449.856 333.82C449.856 333.82 448.904 324.497 448.809 323.072C448.714 321.647 447.948 313.753 447.948 313.753L446.136 297.016L442.91 252.657L442.851 251.826C443.25 251.631 443.463 251.509 443.463 251.509L442.82 226.981L443.377 226.478C448.243 222.068 459.465 211.859 459.352 211.637C459.238 211.414 457.992 194.591 457.847 190.381C457.723 187.388 457.069 184.442 455.917 181.678C455.637 181.12 454.826 177.441 454.49 175.885C454.4 175.458 454.341 175.19 454.341 175.19C454.341 175.19 451.052 168.911 451.337 166.057C451.622 163.203 452.193 161.066 445.18 160.068C445.18 160.068 439.29 159.188 435.784 156.788C433.71 155.35 431.443 154.214 429.052 153.412C429.052 153.412 427.085 149.783 425.717 151.012C425.138 149.717 424.705 148.361 424.426 146.97L424.385 146.716C426.982 144.902 428.851 142.223 429.659 139.157C429.704 138.984 429.74 138.808 429.781 138.635C429.917 138.681 430.059 138.707 430.202 138.712C431.394 138.712 432.128 137.383 433.242 136.961C433.695 136.784 434.253 136.757 434.601 136.398C434.716 136.26 434.802 136.1 434.854 135.928C434.905 135.755 434.921 135.574 434.9 135.396C434.912 135.272 434.912 135.147 434.9 135.024C434.903 134.98 434.903 134.936 434.9 134.892V134.937C434.597 133.286 433.319 131.82 433.46 130.142C433.596 128.563 434.982 127.174 434.869 125.636C434.867 125.515 434.857 125.393 434.837 125.273V125.328C434.668 124.727 434.357 124.176 433.931 123.722C433.443 123.056 432.803 122.518 432.064 122.152C431.435 121.875 430.705 121.812 430.116 121.48C428.386 120.537 428.39 118.078 427.362 116.399C426.921 115.698 426.296 115.133 425.555 114.765C424.814 114.398 423.986 114.242 423.162 114.316C421.875 114.443 420.711 115.128 419.438 115.351C417.698 115.659 415.927 115.092 414.278 114.443C412.629 113.795 410.957 113.082 409.185 113.082C407.414 113.082 405.498 113.99 404.963 115.664C404.678 116.571 404.818 117.547 404.601 118.468C404.211 120.092 402.788 121.254 401.316 122.061C400.41 122.565 399.332 123.141 399.051 124.094C399.051 124.067 399.051 124.044 399.051 124.021C399.03 124.097 399.015 124.175 399.005 124.253C398.996 124.354 398.996 124.455 399.005 124.557C399.005 125.21 399.35 125.831 399.581 126.453C400.011 127.636 400.002 128.934 399.554 130.11C399.218 130.972 398.647 131.73 398.321 132.587C398.168 132.987 398.067 133.405 398.022 133.83V133.758C398.011 133.951 398.011 134.145 398.022 134.339C398.017 135.001 398.172 135.655 398.475 136.244C398.683 136.651 398.97 137.012 399.32 137.305C399.669 137.599 400.074 137.82 400.509 137.955C401.416 138.163 401.982 137.274 402.938 137.501C403.109 137.542 403.277 137.595 403.441 137.66C403.472 137.864 403.504 138.068 403.54 138.268C404.118 141.321 405.743 144.077 408.134 146.058C408.134 146.167 408.171 146.276 408.184 146.389C408.473 148.198 408.599 150.029 408.56 151.861C408.56 151.861 407.133 149.769 405.176 153.807C405.176 153.807 400.07 156.756 398.308 157.092C396.545 157.428 390.289 159.61 390.289 159.61C389.345 160.293 388.209 160.66 387.045 160.658C385.092 160.658 383.47 164.937 383.706 167.264C383.941 169.592 383.565 171.307 381.749 171.402C379.932 171.497 380.924 175.186 380.938 175.249L380.77 176.043C380.417 177.668 379.647 181.152 379.375 181.697C378.223 184.46 377.568 187.406 377.44 190.399C377.3 194.609 376.081 211.369 375.941 211.655C375.845 211.841 383.534 218.878 388.939 223.796L389.722 224.504L387.235 247.77C387.308 248.667 387.574 249.536 388.015 250.32C388.456 251.103 389.062 251.781 389.79 252.307C389.79 252.579 389.79 252.856 389.763 253.142C389.654 255.864 389.437 259.158 389.002 260.02C388.241 261.545 388.431 269.721 388.431 269.721C388.431 269.721 387.665 286.363 386.714 288.173C385.763 289.983 385.568 293.781 385.853 294.525C386.139 295.269 384.897 315.255 384.897 315.255L383.946 324.197C383.946 324.197 384.231 332.754 383.371 332.945C382.51 333.135 382.034 339.034 382.034 339.034C382.034 339.034 378.985 343.217 380.317 344.737C381.649 346.257 380.122 346.928 379.982 347.305C379.841 347.681 377.073 349.119 379.076 354.437C379.094 354.489 379.115 354.541 379.139 354.591C377.264 357.2 371.319 365.616 371.682 366.896C371.949 367.71 372.516 368.391 373.268 368.801C374.668 369.641 377.069 370.031 380.888 368.801C387.231 366.755 386.778 365.281 386.778 365.281C386.81 364.591 387.105 363.941 387.603 363.463C388.1 362.985 388.761 362.716 389.451 362.713C392.074 362.522 394.031 360.099 394.031 360.099L393.723 358.951L393.301 357.363C393.351 356.91 393.673 356.116 395.114 355.676C397.311 355.009 396.736 350.825 396.736 350.825C396.736 350.825 396.545 346.452 397.497 345.88C398.448 345.308 398.072 338.081 398.072 338.081C398.072 338.081 399.123 332.85 400.645 329.329C402.168 325.808 403.989 304.892 403.989 304.892C403.989 304.892 405.226 294.62 406.372 291.671C407.518 288.722 408.569 280.451 408.569 280.451C408.569 280.451 415.632 266.753 415.723 263.709C415.723 263.709 416.629 260.855 417.535 263.995C418.441 267.134 420.987 274.648 420.987 274.648L423.465 283.872L426.424 297.66L428.336 309.266C428.336 309.266 428.046 313.639 428.789 315.164C429.532 316.688 430.601 320.2 430.03 320.867C429.459 321.534 431.172 324.674 431.652 325.336C432.132 325.999 431.652 340.077 431.652 340.077C431.652 340.077 433.845 352.06 436.994 354.142C437.213 354.287 437.447 354.408 437.691 354.505C437.646 355.803 437.601 357.54 437.66 358.448C437.653 358.651 437.686 358.853 437.759 359.042C438.045 359.423 441.288 361.991 441.959 361.991C442.629 361.991 445.008 363.656 445.108 364.464C445.207 365.272 452.08 368.692 453.054 368.792C454.028 368.892 458.749 369.741 459.397 368.411C459.557 368.022 459.603 367.596 459.528 367.182ZM442.643 195.807L443.132 196.229C443.132 196.229 443.635 200.153 443.993 201.329C444.351 202.504 443.921 204.79 443.921 204.79C443.954 205.644 444.123 206.486 444.424 207.286C444.849 208.143 443.563 210.008 443.563 210.008H442.417L442.059 195.317L442.643 195.807ZM408.56 151.942V151.856C408.551 151.883 408.547 151.915 408.547 151.942H408.56ZM390.959 208.497C390.783 208.117 390.757 207.684 390.887 207.286C390.989 207.07 391.069 206.845 391.127 206.614C391.268 206.018 391.356 205.411 391.39 204.799C391.39 204.792 391.39 204.784 391.39 204.777C391.349 204.559 390.982 202.454 391.322 201.338C391.661 200.221 392.178 196.238 392.178 196.238L392.504 195.961L393.261 195.303C393.261 195.303 393.261 195.058 393.315 194.654C393.474 198.103 393.6 201.914 393.397 202.104C393.016 202.481 391.63 206.188 391.965 206.333C392.074 206.383 391.924 207.866 391.67 209.863C391.385 209.434 391.147 208.976 390.959 208.497Z" fill="url(#paint1_linear)"/>
<path d="M427.475 155.568V161.212L415.913 167.033C415.913 167.033 404.433 160.077 407.264 157.31C409.077 155.558 408.728 150.749 408.238 147.442C407.953 145.518 407.622 144.107 407.622 144.107C407.622 144.107 428.245 138.209 425.128 142.687C424.086 144.184 424.005 146.121 424.353 148.04C425.06 151.847 427.475 155.568 427.475 155.568Z" fill="#C37098"/>
<path d="M395.802 210.761L394.312 229.145C394.312 229.145 392.078 227.117 389.188 224.477C383.828 219.581 376.217 212.581 376.308 212.394C376.448 212.109 377.667 195.43 377.798 191.238C377.922 188.262 378.569 185.332 379.71 182.581C379.982 182.037 380.747 178.571 381.069 176.951C381.178 176.447 381.246 176.12 381.246 176.12L383.747 175.113C383.747 175.113 394.167 186.755 394.167 186.969C394.167 187.182 393.455 196.125 393.455 196.125L392.717 196.769L392.395 197.046C392.395 197.046 391.897 200.952 391.544 202.123C391.19 203.293 391.571 205.326 391.612 205.543C391.578 206.155 391.492 206.762 391.353 207.358C391.294 207.588 391.214 207.811 391.113 208.025C390.986 208.422 391.011 208.853 391.186 209.232C391.387 209.758 391.649 210.259 391.965 210.725L395.802 210.761Z" fill="#3F3D56"/>
<path d="M458.953 212.394C459.062 212.617 447.948 222.775 443.132 227.163L440.949 229.145L439.472 210.761H443.3C443.3 210.761 444.578 208.915 444.152 208.062C443.855 207.266 443.688 206.428 443.658 205.58C443.658 205.58 444.079 203.311 443.726 202.136C443.372 200.961 442.874 197.059 442.874 197.059L442.389 196.642L441.814 196.138C441.814 196.138 441.103 187.196 441.103 186.982C441.103 186.769 451.523 175.127 451.523 175.127L454.005 176.121C454.005 176.121 454.06 176.388 454.151 176.815C454.486 178.362 455.288 182.023 455.564 182.581C456.705 185.332 457.352 188.262 457.476 191.238C457.594 195.43 458.808 212.109 458.953 212.394Z" fill="#3F3D56"/>
<path d="M458.998 368.443C458.332 369.768 453.657 368.897 452.692 368.824C451.727 368.751 444.913 365.317 444.818 364.514C444.723 363.711 442.362 362.055 441.701 362.055C441.039 362.055 437.827 359.496 437.542 359.119C437.469 358.931 437.437 358.731 437.447 358.529C437.347 356.973 437.542 352.967 437.542 352.967L451.246 353.725L457.906 363.756C458.468 364.838 458.873 365.995 459.111 367.191C459.192 367.61 459.153 368.045 458.998 368.443Z" fill="#3F3D56"/>
<path opacity="0.1" d="M458.998 368.443C458.332 369.768 453.657 368.897 452.692 368.824C451.727 368.751 444.913 365.317 444.818 364.514C444.723 363.711 442.362 362.055 441.701 362.055C441.039 362.055 437.827 359.496 437.542 359.119C437.469 358.931 437.437 358.731 437.447 358.529C437.347 356.973 437.542 352.967 437.542 352.967L451.246 353.725L457.906 363.756C458.468 364.838 458.873 365.995 459.111 367.191C459.192 367.61 459.153 368.045 458.998 368.443Z" fill="black"/>
<path opacity="0.1" d="M458.998 368.443C458.332 369.768 453.657 368.897 452.692 368.824C451.727 368.751 444.913 365.317 444.818 364.514C444.723 363.711 442.362 362.055 441.701 362.055C441.039 362.055 437.827 359.496 437.542 359.119C437.469 358.931 437.437 358.731 437.447 358.529L441.886 361.342C441.886 361.342 444.723 363.157 445.479 364.233C446.236 365.308 452.198 367.545 452.692 367.59C453.059 367.626 456.973 366.873 459.111 367.191C459.192 367.61 459.153 368.045 458.998 368.443Z" fill="black"/>
<path d="M394.212 360.163C394.212 360.163 392.273 362.576 389.682 362.762C388.998 362.768 388.342 363.036 387.85 363.511C387.357 363.986 387.066 364.633 387.036 365.317C387.036 365.317 387.489 366.787 381.223 368.824C377.44 370.045 375.062 369.659 373.675 368.824C372.931 368.413 372.37 367.736 372.103 366.928C371.677 365.417 380.041 353.915 380.041 353.915L387.652 353.461L393.089 355.921L393.922 359.038L394.212 360.163Z" fill="#3F3D56"/>
<path opacity="0.1" d="M394.212 360.163C394.212 360.163 392.273 362.576 389.682 362.762C388.998 362.768 388.342 363.036 387.85 363.511C387.357 363.986 387.066 364.633 387.036 365.317C387.036 365.317 387.489 366.787 381.223 368.824C377.44 370.045 375.062 369.659 373.675 368.824C372.931 368.413 372.37 367.736 372.103 366.928C371.677 365.417 380.041 353.915 380.041 353.915L387.652 353.461L393.089 355.921L393.922 359.038L394.212 360.163Z" fill="black"/>
<path opacity="0.1" d="M394.212 360.163C394.212 360.163 392.273 362.576 389.682 362.763C388.998 362.768 388.342 363.036 387.85 363.511C387.357 363.986 387.066 364.633 387.036 365.317C387.036 365.317 387.489 366.787 381.223 368.824C377.44 370.045 375.062 369.659 373.675 368.824C377.241 368.452 385.119 366.197 385.908 365.417C386.855 364.468 388.037 361.864 388.839 361.819C389.396 361.782 392.228 360.077 393.927 359.019L394.212 360.163Z" fill="black"/>
<path d="M452.569 349.61C451.718 351.597 452.569 355.667 452.569 355.667C452.569 355.667 439.884 356.329 436.785 354.246C433.686 352.164 431.494 340.236 431.494 340.236C431.494 340.236 431.947 326.23 431.494 325.568C431.04 324.905 429.319 321.784 429.885 321.121C430.452 320.459 429.432 316.956 428.657 315.441C427.883 313.925 428.204 309.574 428.204 309.574L426.311 298.023L423.384 284.303L420.897 275.12C420.897 275.12 418.346 267.643 417.481 264.521C416.615 261.4 415.7 264.235 415.7 264.235C415.61 267.266 408.615 280.895 408.615 280.895C408.615 280.895 407.573 289.13 406.44 292.061C405.307 294.992 404.075 305.219 404.075 305.219C404.075 305.219 402.263 326.039 400.768 329.542C399.273 333.045 398.244 338.249 398.244 338.249C398.244 338.249 398.625 345.444 397.678 346.012C396.731 346.579 396.885 350.934 396.885 350.934C396.885 350.934 397.451 355.095 395.277 355.762C393.102 356.429 393.465 357.844 393.465 357.844C393.465 357.844 381.368 359.832 379.384 354.528C377.399 349.224 380.14 347.813 380.29 347.432C380.439 347.051 381.948 346.393 380.625 344.873C379.302 343.353 382.324 339.197 382.324 339.197C382.324 339.197 382.8 333.33 383.647 333.14C384.494 332.949 384.218 324.433 384.218 324.433L385.16 315.536C385.16 315.536 386.392 295.659 386.107 294.901C385.822 294.144 386.012 290.364 386.959 288.549C387.906 286.735 388.658 270.183 388.658 270.183C388.658 270.183 388.467 262.048 389.224 260.533C389.677 259.675 389.867 256.377 389.976 253.687C390.058 251.631 390.076 249.93 390.076 249.93L400.659 245.955L414.25 241.604L425.685 247.094L442.417 250.311L442.625 253.201L445.819 297.351L447.631 314.007C447.631 314.007 448.388 321.861 448.483 323.281C448.578 324.701 449.52 333.979 449.52 333.979C449.52 333.979 451.505 338.426 450.277 339.941C449.049 341.456 449.52 342.663 449.52 342.663C449.52 342.663 453.421 347.622 452.569 349.61Z" fill="#3F3D56"/>
<path opacity="0.1" d="M425.137 142.687C424.095 144.184 424.014 146.121 424.362 148.04C421.982 149.723 419.115 150.575 416.203 150.466C413.291 150.357 410.496 149.292 408.247 147.437C407.962 145.513 407.631 144.102 407.631 144.102C407.631 144.102 428.254 138.213 425.137 142.687Z" fill="black"/>
<path d="M429.958 136.897C429.958 139.527 429.179 142.097 427.721 144.283C426.262 146.469 424.189 148.173 421.763 149.179C419.338 150.185 416.669 150.449 414.094 149.936C411.519 149.423 409.153 148.157 407.297 146.297C405.44 144.438 404.176 142.07 403.664 139.491C403.152 136.912 403.415 134.239 404.419 131.81C405.424 129.381 407.126 127.305 409.309 125.844C411.491 124.383 414.058 123.604 416.683 123.604C418.429 123.595 420.159 123.933 421.773 124.599C423.387 125.264 424.854 126.243 426.088 127.479C427.323 128.715 428.3 130.184 428.964 131.8C429.628 133.417 429.966 135.149 429.958 136.897Z" fill="#C37098"/>
<path opacity="0.1" d="M432.721 158.988L428.372 236.55L404.745 231.582L400.065 200.489L404.7 158.748L408.189 159.197L414.341 159.982L420.435 160.359L427.04 159.624L432.721 158.988Z" fill="black"/>
<path d="M432.721 159.556L428.372 237.117L404.745 232.149L400.065 201.056L404.7 159.32L408.189 159.764L414.341 160.549L420.435 160.926L427.04 160.191L432.721 159.556Z" fill="#044395"/>
<path d="M413.299 161.638L421.807 161.924L419.415 165.277C419.415 165.277 419.583 172.051 420.72 173.993C421.857 175.934 421.522 205.934 421.522 205.934L419.257 210.239L415.383 205.412L415.433 165.803L413.299 161.638Z" fill="#3F3D56"/>
<path opacity="0.1" d="M413.299 161.638L421.807 161.924L419.415 165.277C419.415 165.277 419.583 172.051 420.72 173.993C421.857 175.934 421.522 205.934 421.522 205.934L419.257 210.239L415.383 205.412L415.433 165.803L413.299 161.638Z" fill="black"/>
<path opacity="0.1" d="M426.623 152.836L418.686 161.638L423.221 166.37L430.737 159.034L426.623 152.836Z" fill="black"/>
<path d="M426.623 152.269L418.686 161.071L423.221 165.803L430.737 158.467L426.623 152.269Z" fill="#044395"/>
<path opacity="0.1" d="M415.333 161.212L407.296 153.167L406.539 157.378L410.227 166.606L415.333 161.212Z" fill="black"/>
<path d="M415.614 160.645L407.582 152.6L406.825 156.811L410.513 166.039L415.614 160.645Z" fill="#044395"/>
<path opacity="0.1" d="M442.666 253.215C438.808 255.055 434.676 256.252 430.433 256.758C422.636 257.752 417.535 247.816 417.535 247.816L414.559 251.695C413.612 255.814 399.2 256.853 393.342 255.293C392.127 254.992 390.984 254.45 389.981 253.7C390.062 251.645 390.08 249.943 390.08 249.943L400.664 245.969L414.255 241.618L425.69 247.108L442.421 250.325L442.666 253.215Z" fill="black"/>
<path opacity="0.1" d="M432.721 159.56L428.377 237.117L404.745 232.149L400.056 201.061L404.687 159.32L408.175 159.773C408.086 161.294 407.915 162.808 407.663 164.31C407.097 166.965 410.594 185.798 410.594 185.798C410.594 185.798 417.241 206.918 420.231 203.874C423.221 200.829 427.479 184.755 427.479 184.755C430.365 178.793 427.529 162.069 427.316 161.733C427.168 161.239 427.077 160.729 427.045 160.213L432.721 159.56Z" fill="black"/>
<path opacity="0.1" d="M442.928 219.577L443.128 227.176L440.944 229.159L439.472 210.761H442.734L442.928 219.577Z" fill="black"/>
<path opacity="0.1" d="M391.616 205.557C391.583 206.168 391.496 206.776 391.358 207.372C391.358 207.204 391.358 207.109 391.322 207.095C391.186 207.059 391.349 206.365 391.616 205.557Z" fill="black"/>
<path opacity="0.1" d="M395.802 210.761L394.312 229.145C394.312 229.145 392.078 227.117 389.188 224.477L389.532 221.219C389.532 221.219 390.751 213.216 391.195 209.268C391.396 209.794 391.658 210.295 391.974 210.761H395.802Z" fill="black"/>
<path d="M408.619 152.882C408.619 152.882 407.206 150.799 405.266 154.819C405.266 154.819 400.21 157.754 398.471 158.086C396.731 158.417 390.542 160.595 390.542 160.595C389.608 161.271 388.484 161.635 387.33 161.634C385.391 161.634 383.783 165.894 384.018 168.212C384.254 170.531 383.878 172.237 382.084 172.332C380.29 172.427 381.278 176.161 381.278 176.161L393.233 189.886C393.233 189.886 393.99 202.522 393.614 202.903C393.238 203.284 391.865 206.986 392.196 207.113C392.527 207.24 390.384 221.215 390.384 221.215L387.502 248.333C387.502 248.333 387.502 252.87 393.365 254.435C399.227 256 413.648 254.966 414.577 250.846L417.553 246.963C417.553 246.963 422.655 256.903 430.452 255.91C438.248 254.916 443.214 252.076 443.214 252.076L442.362 219.577L441.796 196.152L453.969 176.121C453.969 176.121 450.707 169.873 450.993 167.046C451.278 164.22 451.84 162.078 444.895 161.085C444.895 161.085 439.037 160.209 435.585 157.818C433.533 156.391 431.291 155.261 428.925 154.46C428.925 154.46 426.977 150.831 425.622 152.074C425.622 152.074 426.981 157.205 426.868 157.972C426.755 158.739 427.081 162.205 427.294 162.564C427.507 162.922 430.343 179.623 427.457 185.585C427.457 185.585 423.221 201.66 420.208 204.704C417.195 207.749 410.572 186.628 410.572 186.628C410.572 186.628 407.074 167.79 407.64 165.141C408.207 162.491 408.619 152.882 408.619 152.882Z" fill="#3F3D56"/>
<path d="M418.731 214.926C419.88 214.926 420.811 213.994 420.811 212.844C420.811 211.694 419.88 210.761 418.731 210.761C417.583 210.761 416.652 211.694 416.652 212.844C416.652 213.994 417.583 214.926 418.731 214.926Z" fill="#3F3D56"/>
<path d="M418.731 224.744C419.88 224.744 420.811 223.812 420.811 222.662C420.811 221.512 419.88 220.579 418.731 220.579C417.583 220.579 416.652 221.512 416.652 222.662C416.652 223.812 417.583 224.744 418.731 224.744Z" fill="#3F3D56"/>
<path opacity="0.1" d="M418.731 214.926C419.88 214.926 420.811 213.994 420.811 212.844C420.811 211.694 419.88 210.761 418.731 210.761C417.583 210.761 416.652 211.694 416.652 212.844C416.652 213.994 417.583 214.926 418.731 214.926Z" fill="black"/>
<path opacity="0.1" d="M418.731 224.744C419.88 224.744 420.811 223.812 420.811 222.662C420.811 221.512 419.88 220.579 418.731 220.579C417.583 220.579 416.652 221.512 416.652 222.662C416.652 223.812 417.583 224.744 418.731 224.744Z" fill="black"/>
<path opacity="0.1" d="M437.419 346.769C437.419 346.769 445.955 347.432 446.802 348.094C447.649 348.757 437.419 346.769 437.419 346.769Z" fill="black" stroke="#044395" stroke-miterlimit="10"/>
<path opacity="0.1" d="M386.601 340.05C386.601 340.05 388.413 342.318 387.643 343.362C386.873 344.405 386.601 340.05 386.601 340.05Z" fill="black" stroke="#044395" stroke-miterlimit="10"/>
<path opacity="0.1" d="M388.775 348.23C388.775 348.23 392.083 346.052 393.406 347.5C394.729 348.947 388.775 348.23 388.775 348.23Z" fill="black" stroke="#044395" stroke-miterlimit="10"/>
<path opacity="0.1" d="M429.958 136.897C429.96 138.032 429.817 139.162 429.532 140.259C429.252 140.132 429.019 139.922 428.861 139.657C428.704 139.393 428.632 139.087 428.653 138.78C428.712 138.24 429.07 137.746 428.993 137.21C428.879 136.385 427.883 136.049 427.357 135.396C426.709 134.606 426.85 133.458 426.904 132.437C426.958 131.417 426.7 130.169 425.744 129.82C425.459 129.715 425.146 129.706 424.87 129.588C424.118 129.271 423.887 128.336 423.384 127.692C422.378 126.394 420.38 126.421 418.853 127.038C418.189 127.357 417.508 127.642 416.815 127.891C416.467 128.014 416.098 128.063 415.731 128.036C415.364 128.009 415.006 127.905 414.681 127.733C414.382 127.542 414.142 127.279 413.834 127.088C412.81 126.471 411.469 127.088 410.581 127.882C409.693 128.676 408.981 129.742 407.862 130.228C407.36 130.455 406.739 130.591 406.503 131.081C406.387 131.348 406.337 131.639 406.358 131.929C406.358 133.694 406.567 135.486 406.2 137.215C405.964 138.327 405.185 139.588 404.057 139.452C403.916 139.431 403.778 139.396 403.645 139.347C403.305 137.53 403.348 135.662 403.77 133.862C404.192 132.063 404.984 130.371 406.096 128.895C407.208 127.419 408.615 126.192 410.227 125.292C411.839 124.391 413.621 123.838 415.459 123.666C417.297 123.494 419.151 123.708 420.902 124.295C422.653 124.881 424.262 125.826 425.627 127.071C426.992 128.315 428.083 129.831 428.831 131.521C429.578 133.212 429.965 135.04 429.967 136.888L429.958 136.897Z" fill="black"/>
<path d="M403.051 138.594C403.391 138.671 403.713 138.848 404.061 138.894C405.189 139.03 405.969 137.769 406.204 136.657C406.571 134.928 406.381 133.136 406.367 131.371C406.342 131.081 406.39 130.789 406.508 130.523C406.766 130.033 407.387 129.897 407.867 129.67C408.963 129.18 409.679 128.136 410.585 127.324C411.491 126.512 412.81 125.913 413.834 126.53C414.137 126.712 414.382 126.984 414.681 127.174C415.008 127.345 415.366 127.447 415.734 127.474C416.101 127.501 416.471 127.453 416.819 127.333C417.521 127.125 418.178 126.757 418.853 126.48C420.367 125.863 422.369 125.841 423.384 127.129C423.887 127.778 424.118 128.708 424.87 129.026C425.146 129.144 425.459 129.157 425.744 129.262C426.7 129.62 426.945 130.859 426.904 131.879C426.863 132.9 426.727 134.048 427.357 134.838C427.883 135.482 428.879 135.818 428.993 136.652C429.065 137.188 428.712 137.687 428.653 138.222C428.639 138.421 428.665 138.621 428.73 138.81C428.794 138.999 428.895 139.173 429.027 139.322C429.159 139.472 429.319 139.593 429.498 139.68C429.677 139.767 429.872 139.817 430.071 139.828C431.249 139.828 431.978 138.508 433.079 138.086C433.532 137.909 434.08 137.882 434.438 137.524C434.571 137.351 434.665 137.152 434.714 136.94C434.762 136.727 434.764 136.507 434.719 136.294C434.497 134.556 433.106 133.045 433.256 131.303C433.396 129.634 434.941 128.177 434.615 126.535C434.449 125.929 434.138 125.373 433.709 124.915C433.223 124.256 432.59 123.72 431.86 123.35C431.231 123.077 430.501 123.014 429.926 122.683C428.213 121.744 428.218 119.294 427.208 117.624C426.774 116.934 426.159 116.377 425.43 116.013C424.702 115.65 423.887 115.495 423.076 115.564C421.803 115.691 420.647 116.367 419.388 116.594C417.662 116.903 415.913 116.335 414.278 115.687C412.642 115.038 410.988 114.325 409.235 114.325C407.482 114.325 405.584 115.233 405.049 116.893C404.768 117.801 404.909 118.772 404.691 119.684C404.311 121.303 402.879 122.456 401.438 123.259C400.446 123.812 399.254 124.448 399.137 125.577C399.06 126.294 399.454 126.939 399.703 127.633C400.127 128.807 400.117 130.095 399.676 131.262C399.345 132.12 398.792 132.873 398.457 133.726C398.219 134.305 398.107 134.928 398.127 135.554C398.147 136.179 398.3 136.793 398.575 137.356C398.786 137.766 399.079 138.128 399.435 138.421C399.791 138.713 400.203 138.93 400.645 139.057C401.538 139.27 402.1 138.386 403.051 138.594Z" fill="#3F3D56"/>
<g opacity="0.1">
<path opacity="0.1" d="M406.204 135.668C405.969 136.779 405.185 138.041 404.057 137.905C403.708 137.859 403.391 137.682 403.047 137.605C402.1 137.396 401.538 138.286 400.645 138.059C400.202 137.932 399.789 137.715 399.433 137.423C399.076 137.13 398.782 136.768 398.57 136.357C398.333 135.896 398.19 135.391 398.149 134.874C398.059 135.677 398.205 136.489 398.57 137.21C398.782 137.621 399.076 137.983 399.433 138.275C399.789 138.568 400.202 138.785 400.645 138.912C401.551 139.121 402.1 138.231 403.047 138.458C403.378 138.574 403.715 138.672 404.057 138.753C405.185 138.894 405.969 137.632 406.204 136.521C406.39 135.539 406.463 134.539 406.422 133.54C406.417 134.255 406.345 134.967 406.204 135.668Z" fill="black"/>
<path opacity="0.1" d="M399.998 128.835C400.055 128.092 399.953 127.344 399.699 126.644C399.494 126.178 399.32 125.699 399.177 125.21C399.158 125.286 399.143 125.363 399.132 125.441C399.055 126.154 399.454 126.802 399.699 127.497C399.857 127.928 399.957 128.378 399.998 128.835Z" fill="black"/>
<path opacity="0.1" d="M434.61 126.444C434.398 127.733 433.356 128.944 433.251 130.3C433.226 130.533 433.226 130.767 433.251 130.999C433.478 129.416 434.878 128.014 434.61 126.444Z" fill="black"/>
<path opacity="0.1" d="M434.688 136.017C434.649 136.207 434.56 136.383 434.429 136.525C434.094 136.884 433.523 136.911 433.07 137.088C431.969 137.51 431.258 138.844 430.062 138.83C429.756 138.813 429.462 138.703 429.219 138.515C428.977 138.327 428.797 138.07 428.703 137.778C428.675 137.876 428.654 137.976 428.639 138.077C428.626 138.276 428.653 138.475 428.717 138.663C428.782 138.851 428.883 139.025 429.015 139.174C429.147 139.323 429.307 139.444 429.486 139.531C429.665 139.617 429.859 139.668 430.057 139.679C431.24 139.679 431.965 138.358 433.066 137.941C433.519 137.764 434.071 137.737 434.425 137.378C434.558 137.206 434.652 137.007 434.7 136.795C434.749 136.582 434.751 136.362 434.706 136.149C434.701 136.094 434.692 136.058 434.688 136.017Z" fill="black"/>
<path opacity="0.1" d="M429.006 135.641C428.893 134.815 427.896 134.479 427.371 133.826C427.049 133.397 426.874 132.875 426.872 132.338C426.836 133.182 426.85 134.044 427.371 134.679C427.892 135.314 428.685 135.586 428.938 136.24C429.002 136.047 429.026 135.843 429.006 135.641Z" fill="black"/>
<path opacity="0.1" d="M426.9 130.89C426.936 129.869 426.691 128.622 425.735 128.272C425.454 128.168 425.142 128.154 424.865 128.041C424.113 127.723 423.878 126.789 423.379 126.145C422.369 124.851 420.371 124.874 418.849 125.491C418.169 125.768 417.521 126.135 416.815 126.344C416.467 126.467 416.098 126.516 415.731 126.489C415.364 126.461 415.006 126.358 414.681 126.185C414.382 125.995 414.137 125.732 413.834 125.541C412.805 124.924 411.464 125.541 410.581 126.335C409.697 127.129 408.981 128.191 407.862 128.681C407.355 128.908 406.739 129.044 406.476 129.534C406.361 129.801 406.313 130.092 406.336 130.382C406.336 130.559 406.336 130.736 406.336 130.913C406.342 130.73 406.386 130.551 406.467 130.387C406.73 129.897 407.346 129.761 407.853 129.534C408.95 129.044 409.666 128 410.572 127.188C411.478 126.376 412.796 125.777 413.825 126.394C414.128 126.576 414.373 126.848 414.672 127.034C414.997 127.208 415.355 127.312 415.722 127.339C416.089 127.366 416.459 127.316 416.806 127.193C417.498 126.946 418.177 126.663 418.84 126.344C420.358 125.727 422.356 125.7 423.37 126.993C423.869 127.637 424.104 128.572 424.856 128.889C425.133 129.007 425.445 129.021 425.726 129.125C426.501 129.416 426.809 130.287 426.877 131.149L426.9 130.89Z" fill="black"/>
</g>
<g opacity="0.1">
<path opacity="0.1" d="M404.587 135.641C404.613 134.888 404.882 134.163 405.354 133.577C405.827 132.99 406.476 132.573 407.206 132.388C409.226 131.893 411.345 131.989 413.313 132.664C417.612 134.089 412.769 139.216 412.769 139.216C412.769 139.216 409.548 142.392 406.544 140.173C405.657 139.502 405.036 138.537 404.791 137.451C404.644 136.859 404.575 136.25 404.587 135.641Z" fill="black"/>
<path opacity="0.1" d="M428.222 135.641C428.196 134.887 427.926 134.162 427.453 133.576C426.98 132.989 426.329 132.572 425.599 132.388C423.58 131.894 421.463 131.99 419.497 132.664C415.197 134.089 420.04 139.216 420.04 139.216C420.04 139.216 423.257 142.392 426.265 140.173C427.152 139.502 427.774 138.537 428.019 137.451C428.166 136.859 428.234 136.25 428.222 135.641Z" fill="black"/>
<path opacity="0.1" d="M412.502 132.247V132.46H420.353V132.206L412.502 132.247Z" fill="black"/>
<path opacity="0.1" d="M415.007 134.52H415.256V133.799C415.256 133.799 416.054 133.177 417.376 133.799V134.443H417.83V134.021H417.608C417.608 134.021 417.698 133.145 416.221 133.286C416.221 133.286 415.034 133.172 415.061 133.926H414.789L415.007 134.52Z" fill="black"/>
</g>
<path d="M404.587 135.346C404.613 134.593 404.882 133.868 405.354 133.282C405.827 132.695 406.476 132.278 407.206 132.093C409.226 131.601 411.345 131.697 413.313 132.369C417.612 133.799 412.769 138.921 412.769 138.921C412.769 138.921 409.548 142.097 406.544 139.878C405.655 139.208 405.034 138.243 404.791 137.156C404.643 136.564 404.575 135.956 404.587 135.346Z" fill="#044395"/>
<path d="M428.222 135.346C428.196 134.592 427.926 133.867 427.453 133.281C426.98 132.694 426.329 132.277 425.599 132.093C423.58 131.601 421.463 131.697 419.497 132.369C415.197 133.799 420.04 138.921 420.04 138.921C420.04 138.921 423.257 142.097 426.265 139.878C427.154 139.208 427.776 138.243 428.019 137.156C428.166 136.564 428.235 135.956 428.222 135.346Z" fill="#044395"/>
<path d="M412.502 131.961V132.179H420.353V131.92L412.502 131.961Z" fill="#044395"/>
<path d="M415.007 134.234H415.256V133.513C415.256 133.513 416.054 132.896 417.376 133.513V134.162H417.83V133.735H417.608C417.608 133.735 417.698 132.864 416.221 133C416.221 133 415.034 132.891 415.061 133.64H414.789L415.007 134.234Z" fill="#044395"/>
<path d="M55.7885 207.431H53.2152V265.46H55.7885V207.431Z" fill="#535461"/>
<path d="M71.9624 265.283L71.7993 267.897L71.5728 271.585L71.4776 273.123L71.2511 276.817L71.1514 278.355L70.9249 282.043L68.3289 323.998C68.2182 325.803 67.424 327.498 66.1082 328.738C64.7924 329.977 63.0541 330.667 61.2478 330.667H47.756C45.9501 330.667 44.2124 329.977 42.8973 328.737C41.5822 327.498 40.7889 325.803 40.6793 323.998L38.0698 282.043L37.8432 278.355L37.7481 276.817L37.5261 273.114L37.431 271.576L37.2044 267.888L37.0413 265.274C37.0104 264.773 37.0824 264.27 37.2528 263.797C37.4233 263.325 37.6886 262.892 38.0325 262.526C38.3763 262.16 38.7913 261.868 39.252 261.669C39.7127 261.47 40.2092 261.367 40.711 261.368H68.2972C68.7996 261.367 69.2968 261.47 69.7579 261.67C70.219 261.87 70.6342 262.162 70.9778 262.529C71.3215 262.896 71.5861 263.33 71.7555 263.804C71.9248 264.278 71.9953 264.781 71.9624 265.283Z" fill="#3F3D56"/>
<path d="M71.7993 267.897L71.5728 271.585H37.4264L37.1999 267.897H71.7993Z" fill="#9D9CB5"/>
<path d="M71.4776 273.123L71.2511 276.817H37.7526L37.5216 273.123H71.4776Z" fill="#9D9CB5"/>
<path d="M71.1514 278.355L70.9249 282.043H38.0788L37.8478 278.355H71.1514Z" fill="#9D9CB5"/>
<path d="M33.272 229.182C48.2588 240.039 54.5019 257.026 54.5019 257.026C54.5019 257.026 36.4388 256.404 21.4292 245.547C6.41971 234.69 0.199341 217.703 0.199341 217.703C0.199341 217.703 18.2806 218.324 33.272 229.182Z" fill="#044395"/>
<path d="M0.221985 217.703C0.221985 217.703 18.9692 228.138 24.9811 236.759C30.9931 245.379 54.5019 257.03 54.5019 257.03" stroke="#535461" stroke-width="2" stroke-miterlimit="10"/>
<path d="M42.9446 207.327C51.0995 213.225 54.5019 222.48 54.5019 222.48C54.5019 222.48 44.6707 222.145 36.5113 216.233C28.3518 210.321 24.9585 201.079 24.9585 201.079C24.9585 201.079 34.7897 201.392 42.9446 207.327Z" fill="#044395"/>
<path d="M24.9585 201.056C24.9585 201.056 35.1612 206.728 38.4322 211.424C41.7032 216.119 54.5019 222.458 54.5019 222.458" stroke="#535461" stroke-width="2" stroke-miterlimit="10"/>
<path d="M66.3582 221.99C56.9846 232.303 55.0048 245.778 55.0048 245.778C55.0048 245.778 68.2157 242.534 77.5847 232.222C86.9538 221.909 88.9382 208.429 88.9382 208.429C88.9382 208.429 75.7272 211.673 66.3582 221.99Z" fill="#044395"/>
<path d="M88.9382 208.429C88.9382 208.429 76.733 219 73.6296 226.287C70.5262 233.574 55.0048 245.797 55.0048 245.797" stroke="#535461" stroke-width="2" stroke-miterlimit="10"/>
</g>
<defs>
<linearGradient id="paint0_linear" x1="267.888" y1="293.132" x2="267.888" y2="48.8871" gradientUnits="userSpaceOnUse">
<stop stop-color="#808080" stop-opacity="0.25"/>
<stop offset="0.54" stop-color="#808080" stop-opacity="0.12"/>
<stop offset="1" stop-color="#808080" stop-opacity="0.1"/>
</linearGradient>
<linearGradient id="paint1_linear" x1="83376.3" y1="219337" x2="83376.3" y2="74316.5" gradientUnits="userSpaceOnUse">
<stop stop-color="#808080" stop-opacity="0.25"/>
<stop offset="0.54" stop-color="#808080" stop-opacity="0.12"/>
<stop offset="1" stop-color="#808080" stop-opacity="0.1"/>
</linearGradient>
<clipPath id="clip0">
<rect width="519" height="372" fill="white"/>
</clipPath>
</defs>
</svg>
