<svg width="50" height="50" viewBox="0 0 50 50" fill="none" xmlns="http://www.w3.org/2000/svg">
<path d="M25 0L44.5458 9.41276L49.3732 30.563L35.8471 47.5242H14.1529L0.626802 30.563L5.45421 9.41276L25 0Z" fill="white"/>
<path d="M25 2.5L40.1554 31H9.84456L25 2.5Z" fill="#C4C4C4"/>
<path d="M25 46L9.84455 17.5L40.1554 17.5L25 46Z" fill="#044395"/>
<path d="M27.4996 22.604C28.9339 22.6382 30.0689 23.8287 30.0347 25.263C30.0004 26.6973 28.81 27.8322 27.3757 27.798C26.7036 27.782 26.0194 27.3827 25.3207 26.7637C24.8379 26.3358 24.4036 25.8571 23.9892 25.4003C23.9136 25.3169 23.8386 25.2342 23.7641 25.1527C23.8157 25.0993 23.8679 25.0449 23.9208 24.9899C24.3562 24.5371 24.8355 24.0386 25.3667 23.5981C26.1118 22.9803 26.8354 22.5881 27.4996 22.604Z" stroke="white"/>
<path d="M22.1088 27.7678C20.6745 27.7335 19.5395 26.5431 19.5738 25.1088C19.608 23.6745 20.7984 22.5395 22.2327 22.5738C22.9048 22.5898 23.589 22.9891 24.2877 23.6081C24.7706 24.0359 25.2048 24.5146 25.6192 24.9714C25.6949 25.0548 25.7699 25.1375 25.8444 25.219C25.7928 25.2725 25.7405 25.3268 25.6876 25.3819C25.2523 25.8347 24.7729 26.3332 24.2417 26.7737C23.4966 27.3915 22.7731 27.7836 22.1088 27.7678Z" stroke="white"/>
</svg>
