<svg width="41" height="41" viewBox="0 0 41 41" fill="none" xmlns="http://www.w3.org/2000/svg">
<path d="M20.5 0L36.5275 7.71846L40.486 25.0617L29.3946 38.9699H11.6054L0.513977 25.0617L4.47245 7.71846L20.5 0Z" fill="#044395"/>
<path d="M20.5 2.05L32.9275 25.42H8.07253L20.5 2.05Z" fill="#858585"/>
<path d="M20.5 37.72L8.07254 14.35L32.9275 14.35L20.5 37.72Z" fill="white"/>
<path d="M22.5476 18.6252C23.674 18.6521 24.5653 19.587 24.5385 20.7135C24.5116 21.8399 23.5766 22.7312 22.4502 22.7044C21.932 22.692 21.3915 22.3828 20.8227 21.8788C20.4304 21.5313 20.08 21.145 19.7419 20.7722C19.6977 20.7235 19.6538 20.675 19.61 20.6269C19.6343 20.6016 19.6589 20.5761 19.6836 20.5504C20.0394 20.1803 20.4267 19.7774 20.8582 19.4197C21.4658 18.9159 22.0372 18.6131 22.5476 18.6252Z" stroke="#044395"/>
<path d="M18.1314 22.6796C17.0049 22.6527 16.1136 21.7178 16.1405 20.5913C16.1673 19.4649 17.1023 18.5736 18.2287 18.6004C18.7469 18.6128 19.2875 18.922 19.8563 19.426C20.2485 19.7735 20.5989 20.1599 20.937 20.5327C20.9812 20.5813 21.0252 20.6298 21.069 20.6779C21.0446 20.7032 21.02 20.7287 20.9954 20.7544C20.6396 21.1245 20.2522 21.5274 19.8208 21.8851C19.2132 22.3889 18.6417 22.6918 18.1314 22.6796Z" stroke="#044395"/>
</svg>
